<svg width="12" height="10" viewBox="0 0 12 10" fill="none" xmlns="http://www.w3.org/2000/svg">
<path d="M11.7598 0.541016V3.08984C11.7598 4.41406 11.6016 5.50977 11.2852 6.37695C10.9688 7.23242 10.418 7.95898 9.63281 8.55664C8.85938 9.14258 7.98047 9.54102 6.99609 9.75195V7.69531C7.6875 7.30859 8.08008 6.78125 8.17383 6.11328H6.99609V0.541016H11.7598ZM5.39648 0.541016V3.08984C5.39648 4.41406 5.23828 5.50977 4.92188 6.37695C4.60547 7.23242 4.05469 7.95898 3.26953 8.55664C2.49609 9.14258 1.61719 9.54102 0.632812 9.75195V7.69531C1.33594 7.30859 1.73438 6.78125 1.82812 6.11328H0.632812V0.541016H5.39648Z" fill="#B4D2FF"/>
</svg>
