<svg width="12" height="10" viewBox="0 0 12 10" fill="none" xmlns="http://www.w3.org/2000/svg">
<path d="M6.99609 9.75195V7.20312C6.99609 5.86719 7.1543 4.77148 7.4707 3.91602C7.79883 3.06055 8.34961 2.33398 9.12305 1.73633C9.89648 1.13867 10.7754 0.740234 11.7598 0.541016V2.58008C11.0684 2.97852 10.6758 3.51172 10.582 4.17969H11.7598V9.75195H6.99609ZM0.632812 9.75195V7.20312C0.632812 5.86719 0.791016 4.77148 1.10742 3.91602C1.43555 3.06055 1.98633 2.33398 2.75977 1.73633C3.54492 1.13867 4.42383 0.740234 5.39648 0.541016V2.58008C4.70508 2.97852 4.3125 3.51172 4.21875 4.17969H5.39648V9.75195H0.632812Z" fill="#B4D2FF"/>
</svg>
