<svg width="12" height="14" viewBox="0 0 12 14" fill="none" xmlns="http://www.w3.org/2000/svg">
<path d="M10.0074 1.64307H10.7524V2.01627H10.0074V1.64307Z" fill="#66757F"/>
<path d="M0 4.62842V12.0926C0 12.917 0.668416 13.5854 1.49283 13.5854H10.4498C11.2743 13.5854 11.9427 12.917 11.9427 12.0926V4.62842H0Z" fill="#CCD6DD"/>
<path d="M10.4498 1.64307H1.49283C0.668416 1.64307 0 2.31148 0 3.1359V5.00194H11.9427V3.1359C11.9427 2.31148 11.2743 1.64307 10.4498 1.64307Z" fill="#DD2E44"/>
<path d="M2.55113 3.40829C2.28914 3.40829 2.07678 3.15973 2.07678 2.85258C2.07678 2.54581 2.28914 2.29688 2.55113 2.29688C2.81275 2.29688 3.0251 2.54581 3.0251 2.85258C3.0251 3.15936 2.81275 3.40829 2.55113 3.40829ZM4.79038 3.40829C4.52839 3.40829 4.31603 3.15973 4.31603 2.85258C4.31603 2.54581 4.52839 2.29688 4.79038 2.29688C5.052 2.29688 5.26436 2.54581 5.26436 2.85258C5.26436 3.15936 5.052 3.40829 4.79038 3.40829ZM7.02963 3.40829C6.76764 3.40829 6.55528 3.15973 6.55528 2.85258C6.55528 2.54581 6.76764 2.29688 7.02963 2.29688C7.29125 2.29688 7.50398 2.54581 7.50398 2.85258C7.50361 3.15936 7.29125 3.40829 7.02963 3.40829ZM9.26888 3.40829C9.00689 3.40829 8.79453 3.15973 8.79453 2.85258C8.79453 2.54581 9.00689 2.29688 9.26888 2.29688C9.5305 2.29688 9.74323 2.54581 9.74323 2.85258C9.74286 3.15936 9.5305 3.40829 9.26888 3.40829Z" fill="#292F33"/>
<path d="M9.44763 0.216797C8.97104 0.216797 8.55827 0.51611 8.33024 0.952017C8.10408 0.52544 7.68944 0.216797 7.20838 0.216797C6.73179 0.216797 6.31902 0.51611 6.09099 0.952017C5.86482 0.52544 5.45019 0.216797 4.96913 0.216797C4.49254 0.216797 4.07977 0.51611 3.85174 0.952017C3.62557 0.52544 3.21094 0.216797 2.72987 0.216797C2.00809 0.216797 1.42365 0.895663 1.42365 1.7115C1.42365 2.40343 1.81365 2.96958 2.38242 3.17671C2.66568 3.27935 2.83922 3.00989 2.81497 2.7938C2.79444 2.61466 2.67539 2.49785 2.5429 2.41388C2.36189 2.2993 2.16969 2.03768 2.16969 1.71336C2.16969 1.30134 2.42011 0.931491 2.7295 0.931491C3.03889 0.931491 3.28931 1.26924 3.28931 1.64245H3.66849C3.66737 1.66559 3.66252 1.68761 3.66252 1.71112C3.66252 2.40305 4.05253 2.96921 4.6213 3.17634C4.90456 3.27897 5.0781 3.00952 5.05384 2.79343C5.03332 2.61466 4.91426 2.49785 4.78177 2.41388C4.60077 2.2993 4.40857 2.03768 4.40857 1.71336C4.40857 1.30134 4.65899 0.931491 4.96838 0.931491C5.27777 0.931491 5.52894 1.26962 5.52894 1.64283H5.90812C5.907 1.66597 5.90215 1.68798 5.90215 1.7115C5.90215 2.40343 6.29215 2.96958 6.86092 3.17671C7.14418 3.27935 7.31773 3.00989 7.29347 2.7938C7.27294 2.61503 7.15389 2.49822 7.0214 2.41425C6.84039 2.29967 6.64819 2.03805 6.64819 1.71374C6.64819 1.30171 6.89861 0.931864 7.208 0.931864C7.51739 0.931864 7.76819 1.26962 7.76819 1.64283H8.14737C8.14625 1.66597 8.1414 1.68798 8.1414 1.7115C8.1414 2.40343 8.5314 2.96958 9.10017 3.17671C9.38343 3.27935 9.55698 3.00989 9.53272 2.7938C9.51219 2.61503 9.39314 2.49822 9.26065 2.41425C9.07964 2.29967 8.88744 2.03805 8.88744 1.71374C8.88744 1.30171 9.13786 0.931864 9.44725 0.931864C9.75664 0.931864 10.0074 1.26962 10.0074 1.64283H10.7524C10.7445 0.89641 10.1642 0.216797 9.44763 0.216797Z" fill="#66757F"/>
<path d="M3.3589 5.74805H4.85173V7.24088H3.3589V5.74805ZM5.22494 5.74805H6.71778V7.24088H5.22494V5.74805ZM7.09099 5.74805H8.58382V7.24088H7.09099V5.74805ZM8.95703 5.74805H10.4499V7.24088H8.95703V5.74805ZM1.49286 7.61409H2.98569V9.10692H1.49286V7.61409ZM3.3589 7.61409H4.85173V9.10692H3.3589V7.61409ZM5.22494 7.61409H6.71778V9.10692H5.22494V7.61409ZM7.09099 7.61409H8.58382V9.10692H7.09099V7.61409ZM8.95703 7.61409H10.4499V9.10692H8.95703V7.61409ZM1.49286 9.48013H2.98569V10.973H1.49286V9.48013ZM3.3589 9.48013H4.85173V10.973H3.3589V9.48013ZM5.22494 9.48013H6.71778V10.973H5.22494V9.48013ZM7.09099 9.48013H8.58382V10.973H7.09099V9.48013ZM8.95703 9.48013H10.4499V10.973H8.95703V9.48013ZM1.49286 11.3462H2.98569V12.839H1.49286V11.3462ZM3.3589 11.3462H4.85173V12.839H3.3589V11.3462ZM5.22494 11.3462H6.71778V12.839H5.22494V11.3462Z" fill="#797979"/>
</svg>
