<svg width="348" height="72" viewBox="0 0 348 72" fill="none" xmlns="http://www.w3.org/2000/svg">
<g filter="url(#filter0_d_946_17622)">
<g clip-path="url(#clip0_946_17622)">
<rect x="2" y="2" width="344" height="68" rx="8" fill="url(#paint0_radial_946_17622)"/>
<g filter="url(#filter1_f_946_17622)">
<path d="M300.418 -6.51145C302.165 -10.5093 307.835 -10.5093 309.582 -6.51145L313.548 2.56806C314.622 5.02629 317.445 6.19906 319.944 5.22577L328.82 1.7699C332.799 0.2206 336.764 4.05029 335.354 8.08075L331.748 18.3839C330.91 20.7794 331.999 23.423 334.282 24.5325L343.748 29.1332C347.5 30.957 347.5 36.3034 343.748 38.1272L334.282 42.7279C331.999 43.8373 330.91 46.4809 331.748 48.8764L335.354 59.1796C336.764 63.21 332.799 67.0397 328.82 65.4904L319.944 62.0346C317.445 61.0613 314.622 62.2341 313.548 64.6923L309.582 73.7718C307.835 77.7697 302.165 77.7697 300.418 73.7718L296.452 64.6923C295.378 62.2341 292.556 61.0613 290.056 62.0346L281.18 65.4904C277.201 67.0397 273.236 63.2101 274.646 59.1796L278.252 48.8764C279.09 46.4809 278.001 43.8373 275.718 42.7279L266.252 38.1272C262.5 36.3034 262.5 30.957 266.252 29.1332L275.718 24.5325C278.001 23.423 279.09 20.7794 278.252 18.3839L274.646 8.08075C273.236 4.05029 277.201 0.220602 281.18 1.7699L290.056 5.22577C292.556 6.19906 295.378 5.02628 296.452 2.56806L300.418 -6.51145Z" fill="#9CE8AA" fill-opacity="0.7"/>
</g>
<g filter="url(#filter2_f_946_17622)">
<path d="M301.195 10.8532C302.389 7.16075 307.613 7.16075 308.807 10.8532L309.672 13.5285C310.432 15.8809 313.124 16.9868 315.319 15.8491L317.727 14.6009C321.115 12.8446 324.804 16.3789 323.194 19.8392L321.632 23.1986C320.64 25.3297 321.691 27.8521 323.902 28.6489L327.284 29.8675C330.81 31.1378 330.81 36.1235 327.284 37.3938L323.902 38.6125C321.691 39.4092 320.64 41.9316 321.632 44.0627L323.194 47.4221C324.804 50.8825 321.115 54.4168 317.727 52.6604L315.319 51.4122C313.124 50.2745 310.432 51.3804 309.672 53.7328L308.807 56.4082C307.613 60.1006 302.389 60.1006 301.195 56.4081L300.33 53.7328C299.569 51.3804 296.878 50.2745 294.683 51.4122L292.275 52.6604C288.887 54.4168 285.198 50.8825 286.807 47.4221L288.37 44.0627C289.361 41.9316 288.31 39.4092 286.099 38.6125L282.717 37.3938C279.192 36.1235 279.192 31.1378 282.717 29.8675L286.099 28.6489C288.31 27.8521 289.361 25.3297 288.37 23.1986L286.807 19.8392C285.198 16.3789 288.887 12.8446 292.275 14.6009L294.683 15.8491C296.878 16.9868 299.569 15.8809 300.33 13.5285L301.195 10.8532Z" fill="#DEF7E3" fill-opacity="0.7"/>
</g>
<g filter="url(#filter3_f_946_17622)">
<path d="M303.024 22.7242C303.384 20.4795 306.614 20.4795 306.974 22.7242L307.122 23.6457C307.36 25.1309 309.09 25.8317 310.295 24.9305L311.106 24.3238C312.911 22.9726 315.224 25.1781 313.96 27.046L313.114 28.2957C312.303 29.4953 312.996 31.1332 314.422 31.3859L315.976 31.6614C318.178 32.0515 318.178 35.2099 315.976 35.6L314.422 35.8755C312.996 36.1282 312.303 37.7661 313.114 38.9657L313.96 40.2155C315.224 42.0834 312.911 44.2889 311.106 42.9376L310.295 42.3309C309.09 41.4297 307.36 42.1305 307.122 43.6157L306.974 44.5372C306.614 46.782 303.384 46.782 303.024 44.5372L302.877 43.6157C302.639 42.1305 300.908 41.4297 299.704 42.3309L298.893 42.9376C297.087 44.2889 294.774 42.0834 296.038 40.2155L296.884 38.9657C297.696 37.7661 297.003 36.1282 295.576 35.8755L294.022 35.6C291.82 35.2099 291.82 32.0515 294.022 31.6614L295.576 31.3859C297.003 31.1332 297.696 29.4953 296.884 28.2957L296.038 27.046C294.774 25.1781 297.087 22.9726 298.893 24.3238L299.704 24.9305C300.908 25.8317 302.639 25.1309 302.877 23.6457L303.024 22.7242Z" fill="white" fill-opacity="0.7"/>
</g>
<path d="M310.15 54.5133L317.172 57.5925L325.863 33.9583L319.928 31.3561C319.785 31.2934 319.633 31.262 319.479 31.2637C319.325 31.2655 319.173 31.3004 319.031 31.3664C318.89 31.4323 318.762 31.5281 318.654 31.6483C318.547 31.7684 318.462 31.9105 318.405 32.0665L310.15 54.5133Z" fill="#F4A640"/>
<path d="M309.322 53.6364L322.766 56.2383L326.116 35.5968L312.672 32.9949L309.322 53.6364Z" fill="#ADCFD8"/>
<path d="M316.044 35.9124L322.047 37.0742L322.071 36.9271L316.067 35.7652L316.044 35.9124Z" fill="#55769F"/>
<path d="M314.843 35.2943L323.369 36.9443L323.393 36.7972L314.867 35.1472L314.843 35.2943Z" fill="#55769F"/>
<path d="M313.623 37.0381L323.967 39.04L323.991 38.8929L313.647 36.891L313.623 37.0381Z" fill="#55769F"/>
<path d="M313.508 37.7452L323.852 39.7471L323.875 39.5999L313.532 37.598L313.508 37.7452Z" fill="#55769F"/>
<path d="M313.277 39.1612L323.621 41.1631L323.645 41.0159L313.301 39.014L313.277 39.1612Z" fill="#55769F"/>
<path d="M313.213 40.3027L323.508 42.2529L323.531 42.1065L313.236 40.1563L313.213 40.3027Z" fill="#55769F"/>
<path d="M313.049 40.5772L323.393 42.5791L323.416 42.432L313.073 40.4301L313.049 40.5772Z" fill="#55769F"/>
<path d="M312.543 43.6905L322.887 45.6924L322.911 45.5452L312.567 43.5433L312.543 43.6905Z" fill="#55769F"/>
<path d="M312.424 44.4239L322.768 46.4258L322.791 46.2786L312.448 44.2767L312.424 44.4239Z" fill="#55769F"/>
<path d="M312.305 45.1592L322.648 47.1611L322.672 47.014L312.328 45.0121L312.305 45.1592Z" fill="#55769F"/>
<path d="M312.185 45.8926L322.529 47.8945L322.553 47.7474L312.209 45.7455L312.185 45.8926Z" fill="#55769F"/>
<path d="M312.066 46.627L322.41 48.6289L322.434 48.4818L312.09 46.4799L312.066 46.627Z" fill="#55769F"/>
<path d="M311.947 47.3614L322.291 49.3633L322.315 49.2161L311.971 47.2142L311.947 47.3614Z" fill="#55769F"/>
<path d="M311.828 48.0948L322.172 50.0967L322.196 49.9495L311.852 47.9476L311.828 48.0948Z" fill="#55769F"/>
<path d="M309.724 52.7534L322.928 56.5469L327.812 36.2736L314.608 32.4801L309.724 52.7534Z" fill="#DAEEF7"/>
<path d="M317.75 35.6888L323.646 37.3828L323.681 37.2383L317.785 35.5443L317.75 35.6888Z" fill="#55769F"/>
<path d="M316.601 34.9662L324.975 37.3721L325.009 37.2275L316.635 34.8217L316.601 34.9662Z" fill="#55769F"/>
<path d="M315.253 36.5949L325.412 39.5137L325.447 39.3691L315.288 36.4504L315.253 36.5949Z" fill="#55769F"/>
<path d="M315.085 37.2902L325.244 40.209L325.279 40.0645L315.12 37.1457L315.085 37.2902Z" fill="#55769F"/>
<path d="M314.751 38.6808L324.91 41.5996L324.945 41.4551L314.786 38.5363L314.751 38.6808Z" fill="#55769F"/>
<path d="M314.583 39.3761L324.742 42.2949L324.777 42.1504L314.618 39.2316L314.583 39.3761Z" fill="#55769F"/>
<path d="M314.415 40.0714L324.574 42.9902L324.609 42.8457L314.45 39.9269L314.415 40.0714Z" fill="#55769F"/>
<path d="M313.679 43.1291L323.838 46.0479L323.873 45.9033L313.713 42.9845L313.679 43.1291Z" fill="#55769F"/>
<path d="M313.505 43.8498L323.664 46.7686L323.699 46.624L313.54 43.7052L313.505 43.8498Z" fill="#55769F"/>
<path d="M313.331 44.5705L323.49 47.4893L323.525 47.3447L313.366 44.4259L313.331 44.5705Z" fill="#55769F"/>
<path d="M313.157 45.2912L323.316 48.21L323.351 48.0654L313.192 45.1466L313.157 45.2912Z" fill="#55769F"/>
<path d="M312.983 46.0119L323.143 48.9307L323.177 48.7861L313.018 45.8674L312.983 46.0119Z" fill="#55769F"/>
<path d="M312.809 46.7336L322.969 49.6523L323.004 49.5078L312.844 46.589L312.809 46.7336Z" fill="#55769F"/>
<path d="M312.636 47.4543L322.795 50.373L322.83 50.2285L312.67 47.3097L312.636 47.4543Z" fill="#55769F"/>
<path d="M312.814 55.6821L326.949 61.8814L335.194 39.4651L323.316 31.4621C323.159 31.3562 322.983 31.2891 322.8 31.2654C322.617 31.2418 322.431 31.2621 322.256 31.325C322.081 31.388 321.921 31.492 321.786 31.6298C321.652 31.7676 321.546 31.9358 321.478 32.1227L312.814 55.6821Z" fill="#FEB546"/>
<path d="M329.827 53.3298L332.388 52.5119C332.839 50.4766 333.11 48.7432 333.11 48.7432C330.02 48.8792 327.641 49.9119 325.812 51.3803L325.434 54.7026L324.617 52.4722C320.298 56.9703 319.793 63.9119 319.793 63.9119C319.793 63.9119 328.485 60.1982 330.142 58.6677C330.781 58.077 331.37 56.4621 331.851 54.7023C330.986 54.1956 329.827 53.3298 329.827 53.3298Z" fill="#FF5B7E"/>
<path d="M333.11 48.7412C333.11 48.7412 322.938 57.4531 319.793 63.9133C319.793 63.9133 328.485 60.1996 330.142 58.6691C330.781 58.0784 331.37 56.4635 331.851 54.7037C330.986 54.1951 329.827 53.3282 329.827 53.3282L332.388 52.5103C332.838 50.4747 333.11 48.7412 333.11 48.7412Z" fill="#E03268"/>
<path d="M334.857 57.2924C333.052 56.7251 331.352 56.6404 329.786 56.872C329.494 57.6054 329.127 58.4749 329.127 58.4749L328.719 57.0824C322.849 58.5247 319.107 64.2006 319.107 64.2006C323.044 65.5091 326.067 65.2913 328.362 64.3864C328.377 63.8515 328.39 63.0571 328.39 63.0571L329.088 64.066C330.079 63.5793 330.994 62.9278 331.801 62.1348C331.435 61.6143 331.035 61.0102 331.035 61.0102L332.479 61.4125C334.221 59.3876 334.857 57.2924 334.857 57.2924Z" fill="#FF5B7E"/>
<path d="M328.36 64.3851C328.375 63.8502 328.388 63.0558 328.388 63.0558L329.086 64.0647C330.077 63.578 330.992 62.9265 331.799 62.1335C331.433 61.613 331.033 61.0089 331.033 61.0089L332.477 61.4112C334.221 59.3881 334.856 57.293 334.856 57.293C327.888 58.4569 319.105 64.2011 319.105 64.2011C323.042 65.5097 326.065 65.2918 328.36 64.3851Z" fill="#E03268"/>
<path d="M290.447 40.2914H289.48C289.649 40.1671 289.848 40.1013 290.052 40.1026H314.268C315.535 40.1026 316.562 41.0966 316.562 42.323V43.7356C316.562 44.9624 315.535 45.9561 314.268 45.9561L290.323 45.9483L290.447 40.2914Z" fill="#E03268"/>
<path d="M314.53 43.7356V42.323C314.53 41.0962 313.503 40.1025 312.236 40.1025H312.756C314.024 40.1025 315.051 41.0966 315.051 42.323V43.7356C315.051 44.9624 314.024 45.9561 312.756 45.9561H312.243C313.507 45.9505 314.53 44.9579 314.53 43.7356Z" fill="#FEB546"/>
<path d="M308.86 43.7356V42.323C308.86 41.0962 307.833 40.1025 306.566 40.1025H307.087C308.354 40.1025 309.381 41.0966 309.381 42.323V43.7356C309.381 44.9624 308.354 45.9561 307.087 45.9561H306.574C307.837 45.9505 308.86 44.9579 308.86 43.7356Z" fill="#FEB546"/>
<path d="M304.196 40.1074C305.408 40.1074 306.39 41.0583 306.39 42.2312V43.8253C306.39 44.9977 305.408 45.9487 304.196 45.9487H289.121V45.594H289.183L293.016 45.2427L293.792 42.2992C293.792 42.2992 292.297 40.6736 292.199 40.6316C292.102 40.5896 289.184 40.4628 289.184 40.4628H289.122V40.1082L304.196 40.1074Z" fill="#FF5B7E"/>
<path d="M290.099 43.0174C290.099 41.2977 289.18 40.4639 289.18 40.4639H303.886C304.999 40.4639 305.901 41.3371 305.901 42.4144V43.6412C305.901 44.7192 304.999 45.5917 303.886 45.5917H289.18C289.18 45.5917 290.099 45.185 290.099 43.0174Z" fill="#DAEEF7"/>
<g style="mix-blend-mode:multiply">
<path d="M305.901 42.4144V43.6412C305.901 43.7992 305.882 43.9566 305.843 44.1088C305.347 42.9341 304.396 41.804 302.586 41.439C298.361 40.5899 289.18 40.4639 289.18 40.4639H303.886C304.999 40.4639 305.901 41.3371 305.901 42.4144Z" fill="#DAEEF7"/>
</g>
<path d="M290.846 51.9884H289.752C289.938 51.8345 290.165 51.7515 290.399 51.752H317.806C319.24 51.752 320.403 52.9966 320.403 54.5315V56.2973C320.403 57.8322 319.24 59.0768 317.806 59.0768L290.705 59.0668L290.846 51.9884Z" fill="#07085B"/>
<path d="M306.406 51.7578C307.777 51.7578 308.889 52.9474 308.889 54.4162V56.4121C308.889 57.8801 307.777 59.0701 306.406 59.0701H289.344V58.624H289.414L293.752 58.1842L294.628 54.502C294.628 54.502 292.936 52.4675 292.826 52.4151C292.716 52.3626 289.414 52.2032 289.414 52.2032H289.344V51.7578H306.406Z" fill="#55769F"/>
<path d="M290.451 55.4001C290.451 53.2474 289.412 52.2031 289.412 52.2031H306.059C307.318 52.2031 308.339 53.2961 308.339 54.6444V56.1804C308.339 57.5288 307.318 58.6221 306.059 58.6221H289.412C289.412 58.6221 290.451 58.1109 290.451 55.4001Z" fill="#DAEEF7"/>
<g style="mix-blend-mode:multiply">
<path d="M308.338 54.6454V56.1814C308.338 56.3788 308.316 56.5755 308.271 56.7669C307.71 55.2967 306.634 53.8803 304.586 53.4249C299.804 52.3613 289.412 52.2041 289.412 52.2041H306.059C307.317 52.2041 308.338 53.297 308.338 54.6454Z" fill="#DAEEF7"/>
</g>
<path d="M321.306 46.1264H322.401C322.204 46.002 321.981 45.9378 321.754 45.9405H294.336C292.901 45.9405 291.738 46.9279 291.738 48.1461V49.5468C291.738 50.765 292.901 51.7524 294.336 51.7524L321.447 51.745L321.306 46.1264Z" fill="#02CCC0"/>
<path d="M305.741 45.9443C304.369 45.9443 303.256 46.8886 303.256 48.0536V49.6369C303.256 50.8016 304.368 51.7458 305.741 51.7458H322.81V51.3934H322.739L318.4 51.0443L317.523 48.122C317.523 48.122 319.216 46.5075 319.327 46.4659C319.439 46.4243 322.74 46.2979 322.74 46.2979H322.811V45.9454L305.741 45.9443Z" fill="#06BFAD"/>
<path d="M321.701 48.8349C321.701 47.1249 322.741 46.2988 322.741 46.2988H306.089C304.83 46.2988 303.809 47.1661 303.809 48.236V49.4546C303.809 50.5248 304.83 51.3921 306.089 51.3921H322.741C322.741 51.3921 321.701 50.9847 321.701 48.8349Z" fill="#DAEEF7"/>
<g style="mix-blend-mode:multiply">
<path d="M303.809 48.2361V49.4547C303.809 49.6125 303.832 49.7692 303.877 49.9194C304.438 48.7528 305.514 47.6287 307.563 47.2673C312.347 46.4238 322.743 46.3008 322.743 46.3008H306.09C304.83 46.3008 303.809 47.1662 303.809 48.2361Z" fill="#DAEEF7"/>
</g>
<path opacity="0.5" d="M296.762 49.5458V48.145C296.762 46.9268 297.925 45.9395 299.359 45.9395H296.756C295.321 45.9395 294.158 46.9268 294.158 48.145V49.5458C294.158 50.764 295.321 51.7517 296.756 51.7517H299.325C297.907 51.735 296.762 50.7543 296.762 49.5458Z" fill="#55769F"/>
<path d="M323.114 59.3006H324.486C324.235 59.1595 323.957 59.0875 323.675 59.0909H289.301C287.503 59.0909 286.045 60.1943 286.045 61.5552V63.1207C286.045 64.4813 287.503 65.5846 289.301 65.5846L323.29 65.576L323.114 59.3006Z" fill="#FEB546"/>
<path d="M303.598 59.0977C301.878 59.0977 300.484 60.1527 300.484 61.4542V63.2229C300.484 64.524 301.878 65.5798 303.598 65.5798H324.997V65.1839H324.908L319.469 64.7943L318.369 61.53C318.369 61.53 320.491 59.7259 320.629 59.6794C320.768 59.633 324.908 59.4936 324.908 59.4936H324.997V59.1003L303.598 59.0977Z" fill="#F4A640"/>
<path d="M323.608 62.326C323.608 60.4175 324.911 59.4922 324.911 59.4922H304.037C302.457 59.4922 301.178 60.4613 301.178 61.6569V63.0186C301.178 64.2137 302.458 65.1829 304.037 65.1829H324.913C324.913 65.1829 323.608 64.729 323.608 62.326Z" fill="#DAEEF7"/>
<g style="mix-blend-mode:multiply">
<path d="M301.176 61.6573V63.019C301.176 63.1965 301.204 63.3726 301.26 63.5395C301.964 62.2358 303.313 60.9804 305.882 60.5763C311.879 59.6339 324.911 59.4941 324.911 59.4941H304.038C302.456 59.4927 301.176 60.4618 301.176 61.6573Z" fill="#DAEEF7"/>
</g>
<path d="M332.116 66.2568H282.266C282.195 66.2568 282.127 66.2262 282.077 66.1716C282.027 66.117 281.999 66.043 281.999 65.9658V65.8308C281.999 65.7536 282.027 65.6796 282.077 65.625C282.127 65.5704 282.195 65.5397 282.266 65.5397H332.116C332.187 65.5397 332.255 65.5704 332.305 65.6251C332.355 65.6798 332.383 65.7539 332.383 65.8312V65.965C332.383 66.0423 332.355 66.1164 332.305 66.1711C332.255 66.2258 332.187 66.2565 332.116 66.2565V66.2568Z" fill="#C4DFE8"/>
<path d="M332.69 41.9389L323.066 35.9277L321.766 38.7415L331.613 44.4307L332.69 41.9389Z" fill="#F4A640"/>
<path d="M324.78 20.2129C324.78 20.2129 324.856 21.0307 325.446 21.0869C324.856 21.1434 324.78 21.9608 324.78 21.9608C324.78 21.9608 324.704 21.143 324.113 21.0869C324.704 21.0304 324.78 20.2129 324.78 20.2129Z" fill="#02CCC0"/>
<path d="M335.193 44.0391C335.193 44.0391 335.307 45.2658 336.193 45.3502C335.308 45.435 335.193 46.661 335.193 46.661C335.193 46.661 335.079 45.4342 334.193 45.3502C335.079 45.2655 335.193 44.0391 335.193 44.0391Z" fill="#FF5B7E"/>
<path d="M332.415 13.5293C332.415 13.5293 332.517 14.6178 333.303 14.6932C332.516 14.7676 332.415 15.8572 332.415 15.8572C332.415 15.8572 332.313 14.7683 331.527 14.6932C332.314 14.6178 332.415 13.5293 332.415 13.5293Z" fill="#FEB546"/>
<path d="M285.588 48.8662C285.588 48.8662 285.656 49.5989 286.185 49.6495C285.656 49.7015 285.588 50.4342 285.588 50.4342C285.588 50.4342 285.52 49.7015 284.99 49.6506C285.52 49.6 285.588 48.8662 285.588 48.8662Z" fill="#FEB546"/>
<path d="M328.879 28.2744C328.879 28.2744 328.947 29.0053 329.475 29.0551C328.947 29.1056 328.879 29.8357 328.879 29.8357C328.879 29.8357 328.811 29.1045 328.283 29.0551C328.812 29.0053 328.879 28.2744 328.879 28.2744Z" fill="#FF5B7E"/>
<path d="M319.684 9.08594C319.684 9.08594 319.752 9.81679 320.28 9.86661C319.752 9.91716 319.684 10.6473 319.684 10.6473C319.684 10.6473 319.616 9.91605 319.088 9.86661C319.616 9.81679 319.684 9.08594 319.684 9.08594Z" fill="#FF5B7E"/>
<path d="M291.992 18.3926C291.992 18.3926 292.08 19.3495 292.771 19.4153C292.08 19.4814 291.991 20.4383 291.991 20.4383C291.991 20.4383 291.902 19.4814 291.211 19.4153C291.903 19.3495 291.992 18.3926 291.992 18.3926Z" fill="#FF5B7E"/>
<path d="M286.044 34.9619C286.044 34.9619 286.174 36.3634 287.186 36.4604C286.174 36.5574 286.044 37.9589 286.044 37.9589C286.044 37.9589 285.913 36.5574 284.9 36.4604C285.913 36.3638 286.044 34.9619 286.044 34.9619Z" fill="#FF5B7E"/>
<path d="M317.015 22.2285C317.015 22.2285 317.117 23.317 317.903 23.3925C317.116 23.4668 317.015 24.5564 317.015 24.5564C317.015 24.5564 316.913 23.4679 316.127 23.3925C316.914 23.317 317.015 22.2285 317.015 22.2285Z" fill="#FF5B7E"/>
<path d="M336.081 33.9814C336.081 33.9814 336.183 35.0703 336.969 35.1454C336.182 35.2197 336.081 36.3093 336.081 36.3093C336.081 36.3093 335.979 35.2208 335.193 35.1454C335.98 35.0703 336.081 33.9814 336.081 33.9814Z" fill="#02CCC0"/>
<path d="M286.677 11.6416C286.677 11.6416 286.749 12.4171 287.31 12.4706C286.749 12.5245 286.677 13.3 286.677 13.3C286.677 13.3 286.605 12.5245 286.045 12.4706C286.605 12.4171 286.677 11.6416 286.677 11.6416Z" fill="#02CCC0"/>
<path d="M294.158 30.8135C294.158 30.8135 294.273 32.0555 295.17 32.1414C294.273 32.2272 294.158 33.4692 294.158 33.4692C294.158 33.4692 294.042 32.2272 293.145 32.1414C294.042 32.0555 294.158 30.8135 294.158 30.8135Z" fill="#02CCC0"/>
<path d="M284.2 22.7266C284.2 22.7266 284.278 23.7121 284.891 23.7801C284.279 23.8485 284.2 24.8336 284.2 24.8336C284.2 24.8336 284.121 23.8485 283.508 23.7801C284.121 23.7121 284.2 22.7266 284.2 22.7266Z" fill="#FEB546"/>
<path d="M298.876 6.97266C298.876 6.97266 298.955 7.96113 299.569 8.02953C298.955 8.09793 298.876 9.08604 298.876 9.08604C298.876 9.08604 298.796 8.09793 298.184 8.02953C298.796 7.96113 298.876 6.97266 298.876 6.97266Z" fill="#FEB546"/>
<g style="mix-blend-mode:multiply">
<path d="M308.597 26.8057L310.15 26.9417L309.649 28.3135L308.866 28.2447L308.539 29.3882C308.46 29.3488 308.401 29.3187 308.39 29.3098C308.366 29.2926 308.279 28.7254 308.203 28.1893L308.597 26.8057Z" fill="#DAEEF7"/>
</g>
<path d="M309.484 39.4199V40.0177C309.484 40.0294 309.486 40.0411 309.49 40.0519C309.495 40.0628 309.501 40.0727 309.508 40.081C309.516 40.0893 309.525 40.0959 309.535 40.1005C309.545 40.105 309.555 40.1073 309.566 40.1073H310.844C310.864 40.1071 310.883 40.0999 310.899 40.0868C310.915 40.0737 310.927 40.0554 310.932 40.0345C310.938 40.0137 310.937 39.9914 310.93 39.971C310.923 39.9506 310.91 39.9333 310.894 39.9214L310.177 39.4207C310.177 39.4207 309.893 39.6459 309.484 39.4199Z" fill="#E03268"/>
<path d="M306.974 14.0829C306.97 14.0849 306.965 14.0856 306.96 14.0849C306.956 14.0841 306.951 14.082 306.948 14.0788C306.944 14.0756 306.942 14.0713 306.94 14.0665C306.939 14.0617 306.939 14.0566 306.94 14.0517C306.972 13.8859 307.069 13.3629 307.032 13.3454C306.989 13.3234 306.891 13.7885 306.847 13.7941C306.802 13.7997 306.908 13.348 306.858 13.3335C306.808 13.319 306.724 13.7331 306.7 13.7346C306.677 13.7361 306.719 13.3294 306.694 13.3011C306.669 13.2729 306.577 13.7011 306.549 13.7119C306.521 13.7227 306.495 13.4037 306.47 13.403C306.444 13.4023 306.428 13.3971 306.299 14.1331C306.299 14.1331 306.292 14.403 306.248 14.4677L306.345 14.6844L306.647 14.6956C306.647 14.6956 307.302 14.0484 307.297 14.0089C307.291 13.9695 307.261 13.9588 306.974 14.0829Z" fill="#FFC0BB"/>
<path d="M310.077 14.2462C310.08 14.2499 310.083 14.2527 310.088 14.2543C310.092 14.2558 310.097 14.2561 310.101 14.255C310.105 14.254 310.11 14.2516 310.113 14.2482C310.116 14.2448 310.119 14.2405 310.12 14.2358C310.161 14.0718 310.292 13.5577 310.333 13.5596C310.381 13.5618 310.274 14.0243 310.311 14.0514C310.348 14.0785 310.442 13.6246 310.493 13.6362C310.544 13.6477 310.446 14.0585 310.466 14.0715C310.486 14.0845 310.619 13.7016 310.653 13.6889C310.686 13.6763 310.59 14.1031 310.61 14.1265C310.63 14.1499 310.787 13.8789 310.81 13.8912C310.832 13.9034 310.849 13.9068 310.657 14.6265C310.657 14.6265 310.552 14.8704 310.564 14.9484L310.387 15.093L310.115 14.9525C310.115 14.9525 309.802 14.0507 309.823 14.0183C309.845 13.986 309.872 13.9938 310.077 14.2462Z" fill="#FFC0BB"/>
<path d="M307.681 20.1389L307.686 21.3977L306.566 21.2092L306.753 19.7939L307.681 20.1389Z" fill="#FFC0BB"/>
<path opacity="0.6" d="M306.668 20.4459L306.754 19.7949L307.683 20.2592V20.5079C307.46 20.567 307.041 20.6206 306.668 20.4459Z" fill="#FC8D84"/>
<path d="M305.659 39.3545V40.0099C305.659 40.0358 305.65 40.0607 305.633 40.0791C305.616 40.0975 305.593 40.1079 305.569 40.108H304.164C304.142 40.1078 304.12 40.0998 304.103 40.0854C304.085 40.0709 304.073 40.0507 304.067 40.0278C304.06 40.0048 304.061 39.9803 304.069 39.9579C304.076 39.9355 304.09 39.9163 304.109 39.9032L304.897 39.3545C304.897 39.3545 305.207 39.6013 305.659 39.3545Z" fill="#E03268"/>
<path d="M304.376 28.2153C304.379 28.0748 304.044 28.4886 304.051 28.3763C304.182 26.0484 308.347 28.0005 308.347 28.0005L309.364 28.8153L310.512 39.6049C310.512 39.6049 309.889 39.8019 309.479 39.6421L306.937 30.3949L306.626 30.2637C306.626 30.2637 305.234 29.2042 304.376 28.2153Z" fill="#07085B"/>
<path d="M304.047 28.4707C304.047 28.4978 304.044 28.5257 304.043 28.5543C304.044 28.5257 304.045 28.4978 304.047 28.4707Z" fill="#06BFAD"/>
<path d="M304.042 28.5566C304.042 28.5856 304.04 28.6157 304.039 28.6462C304.04 28.6157 304.041 28.5856 304.042 28.5566Z" fill="#06BFAD"/>
<path d="M304.038 28.6582C304.038 28.6902 304.038 28.7225 304.035 28.7556C304.038 28.7225 304.038 28.6902 304.038 28.6582Z" fill="#06BFAD"/>
<path d="M304.051 28.376C304.051 28.4014 304.048 28.4279 304.047 28.4544C304.048 28.4279 304.05 28.4014 304.051 28.376Z" fill="#06BFAD"/>
<path d="M304.051 27.8477C304.909 28.8365 306.624 30.264 306.624 30.264L306.936 30.3952L306.625 30.2636L305.659 39.6049C305.659 39.6049 304.97 39.7484 304.576 39.5153C304.575 39.5153 303.995 30.6235 304.051 27.8477Z" fill="#07085B"/>
<path d="M310.512 39.6045C310.326 39.6594 310.136 39.6922 309.943 39.7023C310.136 39.6922 310.326 39.6594 310.512 39.6045Z" fill="#06BFAD"/>
<path d="M309.598 39.6768C309.626 39.6831 309.654 39.6883 309.682 39.692C309.654 39.6883 309.626 39.6834 309.598 39.6768Z" fill="#06BFAD"/>
<path d="M309.943 39.7025C309.871 39.7057 309.799 39.704 309.727 39.6973C309.799 39.704 309.871 39.7057 309.943 39.7025Z" fill="#06BFAD"/>
<path d="M309.363 28.8153L309.526 30.3551C309.093 30.5383 308.036 30.7342 307.24 28.8309C306.989 28.2309 306.925 27.7993 306.971 27.4893C307.439 27.6268 307.898 27.797 308.346 27.9989L309.363 28.8153Z" fill="#050645"/>
<path d="M305.542 22.5295C305.59 22.5295 306.311 20.7451 306.311 20.7451C306.928 21.218 307.766 20.8897 307.766 20.8897C307.766 20.8897 311.136 27.6254 308.876 28.676C306.617 29.7265 304.485 28.4484 304.485 28.4484C304.485 28.4484 304.004 27.0812 304.004 27.0287C304.004 26.9763 305.494 22.5295 305.542 22.5295Z" fill="#DAEEF7"/>
<path d="M309.934 14.9661C309.934 14.9661 310.08 18.1631 309.805 18.7475C308.895 20.691 307.765 20.888 307.765 20.888C307.765 20.888 307.376 27.685 307.697 29.3133C307.697 29.3133 308.763 29.672 310.334 28.8672C310.334 28.8672 309.132 23.5977 309.196 22.9322C309.196 22.9322 311.12 21.059 311.184 18.8531C311.248 16.6471 310.719 14.6865 310.719 14.6865L309.934 14.9661Z" fill="#55769F"/>
<path d="M304.748 29.0687C304.748 29.0687 304.868 26.5386 305.397 24.1401C305.926 21.7415 306.311 20.7438 306.311 20.7438C305.602 19.8888 305.72 19.1189 305.782 18.1178C305.854 16.9624 306.888 14.6512 306.888 14.6512L306.191 14.1523C302.848 18.539 304.7 22.0308 304.7 22.0308C304.7 22.0308 303.449 26.8635 303.281 28.3334C303.752 28.6204 304.242 28.8663 304.748 29.0687Z" fill="#55769F"/>
<path d="M309.164 22.9247C309.113 22.8847 309.067 22.8379 309.027 22.7853C308.886 22.5994 308.812 22.3883 308.762 22.1533C308.792 22.2537 308.875 22.5455 309.048 22.7671C309.092 22.8276 309.145 22.8803 309.204 22.9232L309.194 22.9325V22.9463C309.15 22.9563 309.072 22.9593 308.94 22.8812C308.863 22.8345 308.792 22.7782 308.727 22.7135C308.796 22.7705 308.871 22.821 308.948 22.8645C309.015 22.9027 309.089 22.9233 309.164 22.9247Z" fill="white"/>
<path d="M304.725 22.0144C304.782 21.9713 304.834 21.9196 304.878 21.8608C305.019 21.6794 305.097 21.4642 305.164 21.2471C305.113 21.4809 305.04 21.6932 304.898 21.879C304.858 21.9315 304.813 21.9783 304.763 22.0184C304.795 22.0198 304.827 22.0158 304.857 22.0065C304.899 21.9949 304.94 21.9786 304.978 21.9578C305.056 21.9146 305.13 21.8641 305.2 21.8069C305.135 21.8715 305.063 21.9277 304.986 21.9746C304.947 21.998 304.906 22.0168 304.863 22.0307C304.819 22.0465 304.772 22.0492 304.727 22.0385L304.701 22.0307L304.725 22.0144Z" fill="white"/>
<path d="M306.076 17.572L306.008 18.4355L306.133 18.5214L306.364 17.4697L306.076 17.572Z" fill="#07085B"/>
<path d="M306.243 18.3448C306.277 18.5404 306.189 18.7233 306.046 18.7538C305.903 18.7842 305.759 18.6497 305.724 18.4541C305.69 18.2586 305.778 18.0753 305.922 18.0452C306.065 18.0151 306.209 18.1504 306.243 18.3448Z" fill="#F99893"/>
<path d="M306.039 19.1445C306.007 18.9041 306.003 18.6602 306.028 18.4188C306.032 18.372 306.034 18.3244 306.035 18.2772C306.04 18.0636 306.085 17.8534 306.168 17.6599C306.251 17.4664 306.37 17.2938 306.517 17.1532C306.664 17.0126 306.837 16.907 307.023 16.843C307.21 16.7791 307.407 16.7583 307.601 16.7819C307.796 16.8055 307.984 16.873 308.153 16.9801C308.322 17.0872 308.469 17.2316 308.585 17.4041C308.7 17.5766 308.782 17.7735 308.824 17.9821C308.866 18.1908 308.868 18.4067 308.829 18.6162C308.874 18.5987 308.922 18.5929 308.969 18.5994C309.017 18.6058 309.062 18.6243 309.101 18.6534C309.251 18.7694 309.265 19.0289 309.132 19.2329C308.999 19.437 308.77 19.5084 308.621 19.3924C308.601 19.3763 308.583 19.3573 308.567 19.3359C308.363 20.0608 307.703 20.5103 307.04 20.353C306.536 20.2322 306.121 19.7761 306.039 19.1445Z" fill="#FFC0BB"/>
<path d="M307.57 18.4542C307.56 18.481 307.558 18.5106 307.565 18.5386C307.571 18.5666 307.586 18.5915 307.607 18.6096C307.627 18.6277 307.653 18.6381 307.679 18.6392C307.706 18.6403 307.732 18.632 307.754 18.6156C307.775 18.5992 307.792 18.5756 307.8 18.5482C307.809 18.5209 307.809 18.4912 307.801 18.4636C307.793 18.4361 307.777 18.4121 307.756 18.3953C307.734 18.3784 307.708 18.3696 307.682 18.3701C307.657 18.3706 307.634 18.3788 307.614 18.3938C307.594 18.4087 307.579 18.4297 307.57 18.4542Z" fill="#333333"/>
<path d="M306.521 18.2823C306.511 18.3091 306.509 18.3387 306.516 18.3667C306.522 18.3947 306.537 18.4196 306.558 18.4377C306.578 18.4558 306.604 18.4662 306.63 18.4673C306.657 18.4684 306.683 18.4601 306.705 18.4437C306.727 18.4274 306.743 18.4037 306.752 18.3764C306.76 18.349 306.76 18.3193 306.752 18.2918C306.744 18.2642 306.728 18.2402 306.707 18.2234C306.685 18.2066 306.659 18.1977 306.633 18.1983C306.609 18.1987 306.585 18.207 306.565 18.2219C306.545 18.2368 306.53 18.2578 306.521 18.2823Z" fill="#333333"/>
<path d="M307.407 19.3946C307.345 19.4287 307.278 19.4537 307.209 19.469C307.142 19.4842 307.072 19.4871 307.003 19.4775C306.935 19.4666 306.869 19.4414 306.809 19.4032C306.75 19.3633 306.696 19.3143 306.648 19.2578C306.689 19.3219 306.74 19.3771 306.799 19.4206C306.86 19.464 306.928 19.4924 307 19.5035C307.071 19.5136 307.144 19.5084 307.214 19.4883C307.283 19.4697 307.348 19.438 307.407 19.3946Z" fill="#F99893"/>
<path d="M307.469 18.1814C307.53 18.1689 307.591 18.1618 307.653 18.1602C307.71 18.1588 307.768 18.1662 307.823 18.1822C307.879 18.1981 307.932 18.2232 307.981 18.2565C308.049 18.2985 308.096 18.3495 308.132 18.3747C308.109 18.3063 308.072 18.2449 308.023 18.1959C307.974 18.1438 307.913 18.1065 307.846 18.0877C307.78 18.0692 307.711 18.0684 307.645 18.0855C307.58 18.1002 307.519 18.1333 307.469 18.1814Z" fill="#07085B"/>
<path d="M306.981 18.0934C306.948 18.0303 306.901 17.9774 306.845 17.9399C306.786 17.9005 306.72 17.8772 306.651 17.8723C306.583 17.8668 306.514 17.8807 306.452 17.9128C306.391 17.9421 306.338 17.9873 306.297 18.0444C306.355 18.0211 306.414 18.0013 306.474 17.9853C306.53 17.9706 306.587 17.9654 306.644 17.9697C306.703 17.9737 306.76 17.9868 306.815 18.0087C306.872 18.0318 306.928 18.0602 306.981 18.0934Z" fill="#07085B"/>
<path d="M307.193 18.2627C307.135 18.322 307.082 18.3855 307.032 18.4527C306.981 18.5196 306.935 18.5902 306.894 18.6642C306.866 18.7121 306.846 18.7647 306.833 18.8199C306.829 18.8482 306.831 18.8757 306.875 18.9222C306.903 18.9538 306.934 18.982 306.968 19.0062C307 19.0306 307.034 19.0523 307.07 19.0709C307.009 19.0177 306.953 18.9589 306.902 18.895C306.891 18.8807 306.882 18.8653 306.875 18.8489C306.874 18.8325 306.877 18.816 306.883 18.801C306.897 18.7622 306.914 18.7249 306.935 18.6895C306.973 18.617 307.018 18.5467 307.061 18.4757C307.105 18.4047 307.15 18.3356 307.193 18.2627Z" fill="#F99893"/>
<path d="M306.223 16.6501C306.223 16.6501 305.807 16.5627 306.319 16.2887C306.831 16.0148 308.085 15.8553 308.741 16.4687C308.741 16.4687 308.961 16.1597 309.16 16.2954C309.358 16.4311 308.953 16.5813 308.953 16.5813C308.953 16.5813 309.23 16.6397 309.284 16.8077C309.323 16.9319 309.154 16.8951 309.063 16.8672C309.213 16.9352 309.656 17.3913 309.081 18.6382C308.979 18.5861 308.321 17.5601 308.321 17.5601C308.321 17.5601 306.999 18.0359 307.24 17.6426C307.24 17.6426 305.699 18.0657 306.073 17.3029C306.073 17.3044 305.505 17.2096 306.223 16.6501Z" fill="#07085B"/>
<path d="M309.082 18.6384C309.044 18.6128 309.002 18.5975 308.958 18.5937C308.914 18.59 308.87 18.5979 308.83 18.6169C308.677 18.6801 308.58 19.0518 308.58 19.0518C308.58 19.0518 308.081 19.4979 308.325 17.5533C308.563 15.6425 308.895 17.8711 308.895 17.8711L309.082 18.6384Z" fill="#07085B"/>
<path d="M309.809 12.6572L307.529 12.4795C307.501 12.4774 307.474 12.4694 307.45 12.456C307.425 12.4425 307.403 12.4239 307.385 12.4012C307.367 12.3785 307.353 12.3521 307.345 12.3236C307.336 12.295 307.333 12.2649 307.335 12.2349C307.336 12.205 307.344 12.1757 307.356 12.1489C307.368 12.122 307.385 12.0981 307.406 12.0784C307.427 12.0587 307.451 12.0437 307.477 12.0342C307.503 12.0247 307.531 12.0209 307.558 12.023L309.839 12.2004C309.894 12.2047 309.946 12.233 309.982 12.2788C310.019 12.3247 310.037 12.3844 310.033 12.445C310.029 12.5054 310.003 12.5617 309.961 12.6015C309.919 12.6413 309.865 12.6613 309.809 12.6572Z" fill="#FEB546"/>
<path d="M309.152 5.15527L309.949 7.28947L312.012 7.78241L310.399 9.27013L310.607 11.5638L308.813 10.3489L306.88 11.2738L307.384 9.03519L305.98 7.31326L308.086 7.14449L309.152 5.15527Z" fill="#FEB546"/>
<path d="M309.153 5.15527L308.949 8.28724L309.951 7.28947L309.153 5.15527Z" fill="#F4A640"/>
<path d="M312.013 7.78223L308.949 8.28706L310.4 9.26996L312.013 7.78223Z" fill="#F4A640"/>
<path d="M308.948 8.28728L308.086 7.14453L305.98 7.3133L308.948 8.28728Z" fill="#F4A640"/>
<path d="M306.881 11.2737L308.949 8.28711L307.385 9.03506L306.881 11.2737Z" fill="#F4A640"/>
<path d="M310.607 11.5637L308.947 8.28711L308.812 10.3488L310.607 11.5637Z" fill="#F4A640"/>
<path d="M310.398 12.7553L306.932 12.4854L306.845 13.8158L310.311 14.0858L310.398 12.7553Z" fill="#6F747A"/>
<g style="mix-blend-mode:multiply">
<path d="M306.853 13.6671L306.844 13.8125L310.31 14.0818L310.319 13.9365L306.853 13.6671Z" fill="#CDD6E0"/>
</g>
<g style="mix-blend-mode:multiply">
<path d="M306.927 12.3416L306.918 12.4873L310.393 12.7529L310.402 12.6072L306.927 12.3416Z" fill="#CDD6E0"/>
</g>
<path d="M310.371 12.8162L306.956 12.5504C306.915 12.5472 306.876 12.5261 306.849 12.4918C306.822 12.4575 306.808 12.4128 306.811 12.3675C306.814 12.3221 306.833 12.2799 306.865 12.2501C306.896 12.2202 306.937 12.2053 306.979 12.2084L310.393 12.4742C310.414 12.4758 310.434 12.4818 310.452 12.4919C310.471 12.502 310.487 12.5159 310.501 12.533C310.514 12.55 310.524 12.5697 310.531 12.5911C310.537 12.6125 310.54 12.635 310.539 12.6575C310.535 12.7028 310.516 12.745 310.485 12.7747C310.453 12.8045 310.412 12.8194 310.371 12.8162Z" fill="#F4A640"/>
<path d="M310.358 14.3949L306.715 14.1116C306.71 14.1112 306.704 14.1096 306.699 14.1069C306.694 14.1042 306.69 14.1004 306.686 14.0958C306.682 14.0912 306.68 14.0859 306.678 14.0801C306.676 14.0743 306.675 14.0683 306.676 14.0622L306.692 13.8124C306.693 13.8002 306.698 13.7889 306.707 13.7809C306.715 13.7729 306.726 13.7688 306.737 13.7696L310.38 14.0529C310.385 14.0533 310.391 14.0549 310.396 14.0577C310.401 14.0604 310.405 14.0641 310.409 14.0687C310.412 14.0733 310.415 14.0787 310.417 14.0844C310.419 14.0902 310.419 14.0963 310.419 14.1023L310.402 14.3522C310.402 14.3643 310.397 14.3757 310.388 14.3837C310.38 14.3917 310.369 14.3957 310.358 14.3949Z" fill="#6F747A"/>
<path d="M309.247 13.6475L307.928 13.5449C307.89 13.5419 307.852 13.5305 307.817 13.5115C307.782 13.4924 307.751 13.466 307.725 13.4338C307.699 13.4016 307.68 13.3642 307.668 13.3238C307.655 13.2833 307.65 13.2406 307.653 13.1981C307.656 13.1555 307.666 13.114 307.684 13.0758C307.701 13.0377 307.725 13.0036 307.755 12.9757C307.785 12.9478 307.819 12.9265 307.856 12.913C307.893 12.8996 307.932 12.8942 307.971 12.8973L309.289 12.9996C309.368 13.0058 309.441 13.0459 309.493 13.111C309.544 13.1761 309.57 13.2609 309.565 13.3468C309.559 13.4327 309.522 13.5126 309.463 13.569C309.403 13.6254 309.325 13.6537 309.247 13.6475Z" fill="#FEB546"/>
<g style="mix-blend-mode:multiply">
<path d="M307.936 13.4379C307.908 13.4357 307.881 13.427 307.856 13.4125C307.831 13.3979 307.81 13.3777 307.793 13.3533C307.776 13.3289 307.764 13.3009 307.757 13.271C307.751 13.2411 307.75 13.2101 307.756 13.18C307.767 13.1273 307.795 13.0806 307.834 13.0488C307.874 13.0169 307.924 13.002 307.973 13.0067L309.274 13.1078C309.323 13.1108 309.37 13.1333 309.405 13.171C309.441 13.2087 309.462 13.2592 309.466 13.313C309.468 13.3437 309.463 13.3743 309.453 13.4029C309.443 13.4315 309.427 13.4574 309.407 13.4788C309.387 13.5003 309.363 13.5169 309.337 13.5275C309.31 13.5381 309.282 13.5424 309.254 13.5402L307.936 13.4379Z" fill="#D9D9D9"/>
</g>
<path d="M309.056 12.2791L308.322 12.2222L308.327 12.1479C308.347 11.846 308.378 11.2185 308.813 10.3486C309.144 11.3438 309.08 11.9033 309.06 12.2051L309.056 12.2791Z" fill="#FEB546"/>
<g filter="url(#filter4_d_946_17622)">
<path d="M19.7021 34.2386C18.7475 34.2386 17.8327 34.0852 16.9577 33.7784C16.0827 33.4659 15.3043 32.9716 14.6225 32.2955C13.9407 31.6136 13.4038 30.7216 13.0117 29.6193C12.6197 28.5114 12.4265 27.1619 12.4322 25.571C12.4379 24.1335 12.614 22.8437 12.9606 21.7017C13.3072 20.554 13.8015 19.5795 14.4435 18.7784C15.0913 17.9773 15.864 17.3665 16.7617 16.946C17.6651 16.5199 18.6737 16.3068 19.7873 16.3068C21.0089 16.3068 22.0856 16.5455 23.0174 17.0227C23.9549 17.4943 24.7049 18.1307 25.2674 18.9318C25.8299 19.7273 26.1623 20.6136 26.2646 21.5909H22.114C21.989 21.0398 21.7134 20.6222 21.2873 20.3381C20.8668 20.0483 20.3668 19.9034 19.7873 19.9034C18.7191 19.9034 17.9208 20.3665 17.3924 21.2926C16.8697 22.2187 16.6026 23.4574 16.5913 25.0085H16.7021C16.9407 24.4858 17.2844 24.0369 17.7333 23.6619C18.1822 23.2869 18.6964 23 19.2759 22.8011C19.8612 22.5966 20.4805 22.4943 21.1339 22.4943C22.1793 22.4943 23.1026 22.7358 23.9038 23.2188C24.7049 23.7017 25.3327 24.3636 25.7873 25.2045C26.2418 26.0398 26.4663 26.9972 26.4606 28.0767C26.4663 29.2926 26.1822 30.3665 25.6083 31.2983C25.0344 32.2244 24.239 32.946 23.2219 33.4631C22.2106 33.9801 21.0373 34.2386 19.7021 34.2386ZM19.6765 31C20.1935 31 20.6566 30.8778 21.0657 30.6335C21.4748 30.3892 21.7958 30.0568 22.0288 29.6364C22.2617 29.2159 22.3754 28.7415 22.3697 28.2131C22.3754 27.679 22.2617 27.2045 22.0288 26.7898C21.8015 26.375 21.4833 26.0455 21.0742 25.8011C20.6708 25.5568 20.2077 25.4347 19.685 25.4347C19.3043 25.4347 18.9492 25.5057 18.6197 25.6477C18.2901 25.7898 18.0032 25.9886 17.7589 26.2443C17.5202 26.4943 17.3327 26.7898 17.1964 27.1307C17.06 27.4659 16.989 27.8295 16.9833 28.2216C16.989 28.7386 17.1083 29.2074 17.3413 29.6278C17.5742 30.0483 17.8924 30.3835 18.2958 30.6335C18.6992 30.8778 19.1594 31 19.6765 31ZM36.0721 34.4261C34.5494 34.4261 33.2369 34.0653 32.1346 33.3438C31.0323 32.6165 30.1829 31.5739 29.5863 30.2159C28.9897 28.8523 28.6942 27.2131 28.6999 25.2983C28.7056 23.3835 29.0039 21.7585 29.5948 20.4233C30.1914 19.0824 31.038 18.0625 32.1346 17.3636C33.2369 16.6591 34.5494 16.3068 36.0721 16.3068C37.5948 16.3068 38.9073 16.6591 40.0096 17.3636C41.1175 18.0625 41.9698 19.0824 42.5664 20.4233C43.163 21.7642 43.4585 23.3892 43.4528 25.2983C43.4528 27.2187 43.1545 28.8608 42.5579 30.2244C41.9613 31.5881 41.1119 32.6307 40.0096 33.3523C38.913 34.0682 37.6005 34.4261 36.0721 34.4261ZM36.0721 30.9744C36.9812 30.9744 37.717 30.5114 38.2795 29.5852C38.842 28.6534 39.1204 27.2244 39.1147 25.2983C39.1147 24.0369 38.9869 22.9972 38.7312 22.179C38.4755 21.3551 38.1204 20.7415 37.6658 20.3381C37.2113 19.9347 36.68 19.733 36.0721 19.733C35.1687 19.733 34.4386 20.1903 33.8817 21.1051C33.3249 22.0142 33.0437 23.4119 33.038 25.2983C33.0323 26.5767 33.1545 27.6364 33.4045 28.4773C33.6602 29.3182 34.0181 29.946 34.4783 30.3608C34.9386 30.7699 35.4698 30.9744 36.0721 30.9744ZM55.6445 30.7273V29.8068C55.6445 29.0909 55.7979 28.429 56.1048 27.821C56.4173 27.2131 56.869 26.7244 57.4599 26.3551C58.0508 25.9858 58.7724 25.8011 59.6246 25.8011C60.494 25.8011 61.2241 25.9858 61.815 26.3551C62.4116 26.7188 62.8604 27.2045 63.1616 27.8125C63.4684 28.4148 63.6218 29.0795 63.6218 29.8068V30.7273C63.6218 31.4432 63.4684 32.1051 63.1616 32.7131C62.8548 33.321 62.4031 33.8097 61.8065 34.179C61.2099 34.5483 60.4826 34.733 59.6246 34.733C58.761 34.733 58.0337 34.5483 57.4428 34.179C56.8519 33.8097 56.4031 33.321 56.0962 32.7131C55.7951 32.1051 55.6445 31.4432 55.6445 30.7273ZM58.3633 29.8068V30.7273C58.3633 31.0909 58.4513 31.4403 58.6275 31.7756C58.8093 32.1108 59.1417 32.2784 59.6246 32.2784C60.119 32.2784 60.4514 32.1165 60.6218 31.7926C60.7923 31.4631 60.8775 31.108 60.8775 30.7273V29.8068C60.8775 29.4261 60.7951 29.0682 60.6303 28.733C60.4712 28.392 60.136 28.2216 59.6246 28.2216C59.1474 28.2216 58.8178 28.392 58.636 28.733C58.4542 29.0682 58.3633 29.4261 58.3633 29.8068ZM46.5934 20.7386V19.8182C46.5934 19.0909 46.7496 18.4261 47.0621 17.8239C47.3803 17.2159 47.8349 16.7301 48.4258 16.3665C49.0167 15.9972 49.7326 15.8125 50.5735 15.8125C51.4428 15.8125 52.1729 15.9972 52.7638 16.3665C53.3604 16.7301 53.8121 17.2159 54.119 17.8239C54.4258 18.4261 54.5792 19.0909 54.5792 19.8182V20.7386C54.5792 21.4659 54.4229 22.1307 54.1104 22.733C53.8036 23.3352 53.3519 23.8153 52.7553 24.1733C52.1587 24.5312 51.4315 24.7102 50.5735 24.7102C49.7156 24.7102 48.9883 24.5284 48.3917 24.1648C47.8008 23.8011 47.3519 23.3182 47.0451 22.7159C46.744 22.1136 46.5934 21.4545 46.5934 20.7386ZM49.3377 19.8182V20.7386C49.3377 21.1193 49.4258 21.4744 49.6019 21.804C49.7837 22.1278 50.1076 22.2898 50.5735 22.2898C51.0735 22.2898 51.4059 22.1278 51.5707 21.804C51.7411 21.4744 51.8263 21.1193 51.8263 20.7386V19.8182C51.8263 19.4375 51.7468 19.0795 51.5877 18.7443C51.4286 18.4034 51.0906 18.233 50.5735 18.233C50.0962 18.233 49.7695 18.4062 49.5934 18.7528C49.4229 19.0994 49.3377 19.4545 49.3377 19.8182ZM47.8803 34L59.8803 16.5455H62.207L50.207 34H47.8803Z" fill="url(#paint1_radial_946_17622)"/>
</g>
<path d="M74.4972 32.1541C73.7813 32.1541 73.1565 31.9901 72.6229 31.6619C72.0893 31.3338 71.675 30.8748 71.38 30.2848C71.085 29.6948 70.9375 29.0054 70.9375 28.2166C70.9375 27.4245 71.085 26.7318 71.38 26.1385C71.675 25.5452 72.0893 25.0845 72.6229 24.7564C73.1565 24.4283 73.7813 24.2642 74.4972 24.2642C75.2131 24.2642 75.8378 24.4283 76.3714 24.7564C76.9051 25.0845 77.3194 25.5452 77.6143 26.1385C77.9093 26.7318 78.0568 27.4245 78.0568 28.2166C78.0568 29.0054 77.9093 29.6948 77.6143 30.2848C77.3194 30.8748 76.9051 31.3338 76.3714 31.6619C75.8378 31.9901 75.2131 32.1541 74.4972 32.1541ZM74.5021 30.9062C74.9661 30.9062 75.3506 30.7836 75.6555 30.5384C75.9605 30.2931 76.1858 29.9666 76.3317 29.5589C76.4808 29.1513 76.5554 28.7022 76.5554 28.2116C76.5554 27.7244 76.4808 27.277 76.3317 26.8693C76.1858 26.4583 75.9605 26.1286 75.6555 25.88C75.3506 25.6314 74.9661 25.5071 74.5021 25.5071C74.0348 25.5071 73.647 25.6314 73.3388 25.88C73.0339 26.1286 72.8068 26.4583 72.6577 26.8693C72.5118 27.277 72.4389 27.7244 72.4389 28.2116C72.4389 28.7022 72.5118 29.1513 72.6577 29.5589C72.8068 29.9666 73.0339 30.2931 73.3388 30.5384C73.647 30.7836 74.0348 30.9062 74.5021 30.9062ZM83.3503 24.3636V25.5568H79.035V24.3636H83.3503ZM80.2182 32V23.4787C80.2182 23.0014 80.3226 22.6053 80.5314 22.2905C80.7402 21.9723 81.017 21.7353 81.3617 21.5795C81.7064 21.4205 82.0809 21.3409 82.4853 21.3409C82.7836 21.3409 83.0388 21.3658 83.2509 21.4155C83.463 21.4619 83.6204 21.505 83.7232 21.5447L83.3752 22.7479C83.3056 22.728 83.2161 22.7048 83.1067 22.6783C82.9973 22.6484 82.8648 22.6335 82.709 22.6335C82.3477 22.6335 82.0892 22.723 81.9334 22.902C81.781 23.081 81.7047 23.3395 81.7047 23.6776V32H80.2182ZM88.7085 32V21.8182H92.4371C93.1597 21.8182 93.7579 21.9375 94.2319 22.1761C94.7058 22.4115 95.0605 22.7313 95.2958 23.1357C95.5311 23.5367 95.6488 23.9891 95.6488 24.4929C95.6488 24.9171 95.5709 25.2751 95.4151 25.5668C95.2594 25.8551 95.0505 26.0871 94.7887 26.2628C94.5302 26.4351 94.2451 26.5611 93.9336 26.6406V26.7401C94.2717 26.7566 94.6014 26.866 94.9229 27.0682C95.2478 27.267 95.5162 27.5504 95.7283 27.9183C95.9405 28.2862 96.0465 28.7337 96.0465 29.2607C96.0465 29.781 95.9239 30.2483 95.6786 30.6626C95.4367 31.0736 95.0621 31.4001 94.555 31.642C94.0479 31.8807 93.4 32 92.6112 32H88.7085ZM90.2447 30.6825H92.462C93.1978 30.6825 93.7248 30.54 94.043 30.255C94.3612 29.9699 94.5202 29.6136 94.5202 29.1861C94.5202 28.8646 94.439 28.5696 94.2766 28.3011C94.1142 28.0327 93.8822 27.8189 93.5806 27.6598C93.2823 27.5007 92.9277 27.4212 92.5167 27.4212H90.2447V30.6825ZM90.2447 26.223H92.3029C92.6476 26.223 92.9575 26.1567 93.2326 26.0241C93.511 25.8916 93.7314 25.706 93.8938 25.4673C94.0595 25.2254 94.1424 24.9403 94.1424 24.6122C94.1424 24.1913 93.9949 23.8383 93.6999 23.5533C93.4049 23.2682 92.9525 23.1257 92.3427 23.1257H90.2447V26.223ZM97.7493 32V24.3636H99.2358V32H97.7493ZM98.5 23.1854C98.2415 23.1854 98.0194 23.0992 97.8338 22.9268C97.6515 22.7512 97.5604 22.5424 97.5604 22.3004C97.5604 22.0552 97.6515 21.8464 97.8338 21.674C98.0194 21.4983 98.2415 21.4105 98.5 21.4105C98.7585 21.4105 98.9789 21.4983 99.1612 21.674C99.3468 21.8464 99.4396 22.0552 99.4396 22.3004C99.4396 22.5424 99.3468 22.7512 99.1612 22.9268C98.9789 23.0992 98.7585 23.1854 98.5 23.1854ZM102.722 27.4659V32H101.236V21.8182H102.702V25.6065H102.797C102.976 25.1955 103.249 24.8691 103.617 24.6271C103.985 24.3852 104.465 24.2642 105.059 24.2642C105.582 24.2642 106.04 24.3719 106.431 24.5874C106.825 24.8028 107.13 25.1243 107.346 25.5518C107.564 25.9761 107.674 26.5064 107.674 27.1428V32H106.187V27.3217C106.187 26.7616 106.043 26.3274 105.755 26.0192C105.466 25.7076 105.065 25.5518 104.552 25.5518C104.2 25.5518 103.885 25.6264 103.607 25.7756C103.332 25.9247 103.115 26.1435 102.956 26.4318C102.8 26.7169 102.722 27.0616 102.722 27.4659ZM111.88 32.169C111.396 32.169 110.958 32.0795 110.567 31.9006C110.176 31.7183 109.866 31.4548 109.638 31.1101C109.412 30.7654 109.3 30.3428 109.3 29.8423C109.3 29.4115 109.382 29.0568 109.548 28.7784C109.714 28.5 109.938 28.2796 110.219 28.1172C110.501 27.9548 110.816 27.8321 111.164 27.7493C111.512 27.6664 111.867 27.6035 112.228 27.5604C112.685 27.5073 113.056 27.4643 113.341 27.4311C113.626 27.3946 113.834 27.3366 113.963 27.2571C114.092 27.1776 114.157 27.0483 114.157 26.8693V26.8345C114.157 26.4003 114.034 26.0639 113.789 25.8253C113.547 25.5866 113.186 25.4673 112.705 25.4673C112.205 25.4673 111.81 25.5784 111.522 25.8004C111.237 26.0192 111.04 26.2628 110.93 26.5312L109.533 26.2131C109.699 25.7491 109.941 25.3745 110.259 25.0895C110.581 24.8011 110.95 24.5923 111.368 24.4631C111.785 24.3305 112.224 24.2642 112.685 24.2642C112.99 24.2642 113.313 24.3007 113.655 24.3736C113.999 24.4432 114.321 24.5724 114.619 24.7614C114.921 24.9503 115.168 25.2204 115.36 25.5717C115.552 25.9197 115.648 26.3722 115.648 26.929V32H114.197V30.956H114.137C114.041 31.1482 113.897 31.3371 113.704 31.5227C113.512 31.7083 113.265 31.8625 112.964 31.9851C112.662 32.1077 112.301 32.169 111.88 32.169ZM112.203 30.9759C112.614 30.9759 112.965 30.8946 113.257 30.7322C113.552 30.5698 113.776 30.3577 113.928 30.0959C114.084 29.8307 114.162 29.5473 114.162 29.2457V28.2614C114.109 28.3144 114.006 28.3641 113.854 28.4105C113.704 28.4536 113.534 28.4917 113.341 28.5249C113.149 28.5547 112.962 28.5829 112.78 28.6094C112.597 28.6326 112.445 28.6525 112.322 28.669C112.034 28.7055 111.77 28.7668 111.532 28.853C111.296 28.9392 111.108 29.0634 110.965 29.2259C110.826 29.3849 110.756 29.5971 110.756 29.8622C110.756 30.2301 110.892 30.5085 111.164 30.6974C111.436 30.883 111.782 30.9759 112.203 30.9759ZM117.628 32V24.3636H119.065V25.5767H119.145C119.284 25.1657 119.529 24.8426 119.88 24.6072C120.235 24.3686 120.636 24.2493 121.083 24.2493C121.176 24.2493 121.286 24.2526 121.412 24.2592C121.541 24.2659 121.642 24.2741 121.715 24.2841V25.706C121.655 25.6894 121.549 25.6712 121.397 25.6513C121.244 25.6281 121.092 25.6165 120.939 25.6165C120.588 25.6165 120.275 25.6911 120 25.8402C119.728 25.986 119.512 26.1899 119.353 26.4517C119.194 26.7102 119.115 27.0052 119.115 27.3366V32H117.628ZM132.429 26.228L131.081 26.4666C131.025 26.2943 130.935 26.1302 130.813 25.9744C130.694 25.8187 130.531 25.6911 130.326 25.5916C130.12 25.4922 129.863 25.4425 129.555 25.4425C129.134 25.4425 128.783 25.5369 128.501 25.7259C128.219 25.9115 128.078 26.1518 128.078 26.4467C128.078 26.7019 128.173 26.9074 128.362 27.0632C128.551 27.219 128.856 27.3466 129.277 27.446L130.49 27.7244C131.192 27.8868 131.716 28.1371 132.061 28.4751C132.405 28.8132 132.578 29.2524 132.578 29.7926C132.578 30.25 132.445 30.6577 132.18 31.0156C131.918 31.3703 131.552 31.6487 131.081 31.8509C130.614 32.053 130.072 32.1541 129.456 32.1541C128.6 32.1541 127.903 31.9718 127.363 31.6072C126.822 31.2393 126.491 30.7173 126.368 30.0412L127.805 29.8224C127.895 30.197 128.078 30.4804 128.357 30.6726C128.635 30.8615 128.998 30.956 129.446 30.956C129.933 30.956 130.322 30.8549 130.614 30.6527C130.906 30.4472 131.051 30.197 131.051 29.902C131.051 29.6634 130.962 29.4628 130.783 29.3004C130.607 29.138 130.337 29.0154 129.973 28.9325L128.68 28.6491C127.967 28.4867 127.44 28.2282 127.099 27.8736C126.761 27.5189 126.592 27.0698 126.592 26.5263C126.592 26.0755 126.718 25.6811 126.97 25.343C127.222 25.005 127.57 24.7415 128.014 24.5526C128.458 24.3603 128.967 24.2642 129.54 24.2642C130.365 24.2642 131.015 24.4432 131.489 24.8011C131.963 25.1558 132.276 25.6314 132.429 26.228ZM137.777 24.3636V25.5568H133.606V24.3636H137.777ZM134.724 22.5341H136.211V29.7578C136.211 30.0462 136.254 30.2633 136.34 30.4091C136.426 30.5516 136.537 30.6494 136.673 30.7024C136.812 30.7521 136.963 30.777 137.126 30.777C137.245 30.777 137.349 30.7687 137.439 30.7521C137.528 30.7356 137.598 30.7223 137.648 30.7124L137.916 31.9403C137.83 31.9735 137.707 32.0066 137.548 32.0398C137.389 32.0762 137.19 32.0961 136.952 32.0994C136.56 32.1061 136.196 32.0365 135.858 31.8906C135.52 31.7448 135.246 31.5194 135.037 31.2145C134.829 30.9096 134.724 30.5268 134.724 30.0661V22.5341ZM141.643 32.169C141.16 32.169 140.722 32.0795 140.331 31.9006C139.94 31.7183 139.63 31.4548 139.401 31.1101C139.176 30.7654 139.063 30.3428 139.063 29.8423C139.063 29.4115 139.146 29.0568 139.312 28.7784C139.478 28.5 139.701 28.2796 139.983 28.1172C140.265 27.9548 140.58 27.8321 140.928 27.7493C141.276 27.6664 141.63 27.6035 141.991 27.5604C142.449 27.5073 142.82 27.4643 143.105 27.4311C143.39 27.3946 143.597 27.3366 143.727 27.2571C143.856 27.1776 143.92 27.0483 143.92 26.8693V26.8345C143.92 26.4003 143.798 26.0639 143.553 25.8253C143.311 25.5866 142.949 25.4673 142.469 25.4673C141.968 25.4673 141.574 25.5784 141.286 25.8004C141 26.0192 140.803 26.2628 140.694 26.5312L139.297 26.2131C139.463 25.7491 139.705 25.3745 140.023 25.0895C140.344 24.8011 140.714 24.5923 141.131 24.4631C141.549 24.3305 141.988 24.2642 142.449 24.2642C142.754 24.2642 143.077 24.3007 143.418 24.3736C143.763 24.4432 144.085 24.5724 144.383 24.7614C144.684 24.9503 144.931 25.2204 145.124 25.5717C145.316 25.9197 145.412 26.3722 145.412 26.929V32H143.96V30.956H143.901C143.804 31.1482 143.66 31.3371 143.468 31.5227C143.276 31.7083 143.029 31.8625 142.727 31.9851C142.426 32.1077 142.064 32.169 141.643 32.169ZM141.967 30.9759C142.378 30.9759 142.729 30.8946 143.021 30.7322C143.316 30.5698 143.539 30.3577 143.692 30.0959C143.848 29.8307 143.925 29.5473 143.925 29.2457V28.2614C143.872 28.3144 143.77 28.3641 143.617 28.4105C143.468 28.4536 143.297 28.4917 143.105 28.5249C142.913 28.5547 142.726 28.5829 142.543 28.6094C142.361 28.6326 142.209 28.6525 142.086 28.669C141.798 28.7055 141.534 28.7668 141.295 28.853C141.06 28.9392 140.871 29.0634 140.729 29.2259C140.589 29.3849 140.52 29.5971 140.52 29.8622C140.52 30.2301 140.656 30.5085 140.928 30.6974C141.199 30.883 141.546 30.9759 141.967 30.9759ZM150.956 24.3636V25.5568H146.785V24.3636H150.956ZM147.904 22.5341H149.39V29.7578C149.39 30.0462 149.434 30.2633 149.52 30.4091C149.606 30.5516 149.717 30.6494 149.853 30.7024C149.992 30.7521 150.143 30.777 150.305 30.777C150.425 30.777 150.529 30.7687 150.618 30.7521C150.708 30.7356 150.778 30.7223 150.827 30.7124L151.096 31.9403C151.01 31.9735 150.887 32.0066 150.728 32.0398C150.569 32.0762 150.37 32.0961 150.131 32.0994C149.74 32.1061 149.376 32.0365 149.037 31.8906C148.699 31.7448 148.426 31.5194 148.217 31.2145C148.008 30.9096 147.904 30.5268 147.904 30.0661V22.5341ZM155.81 32.1541C155.058 32.1541 154.41 31.9934 153.866 31.6719C153.326 31.3471 152.908 30.8913 152.613 30.3047C152.322 29.7147 152.176 29.0237 152.176 28.2315C152.176 27.4493 152.322 26.7599 152.613 26.1634C152.908 25.5668 153.319 25.1011 153.846 24.7663C154.377 24.4316 154.996 24.2642 155.706 24.2642C156.136 24.2642 156.554 24.3355 156.958 24.478C157.363 24.6205 157.726 24.8442 158.047 25.1491C158.369 25.4541 158.622 25.8501 158.808 26.3374C158.993 26.8213 159.086 27.4096 159.086 28.1023V28.6293H153.016V27.5156H157.63C157.63 27.1245 157.55 26.7782 157.391 26.4766C157.232 26.1716 157.008 25.9313 156.72 25.7557C156.435 25.58 156.1 25.4922 155.716 25.4922C155.298 25.4922 154.933 25.5949 154.622 25.8004C154.314 26.0026 154.075 26.2678 153.906 26.5959C153.74 26.9207 153.657 27.2737 153.657 27.6548V28.5249C153.657 29.0353 153.747 29.4695 153.926 29.8274C154.108 30.1854 154.362 30.4588 154.686 30.6477C155.011 30.8333 155.391 30.9261 155.825 30.9261C156.107 30.9261 156.364 30.8864 156.596 30.8068C156.828 30.724 157.028 30.6013 157.197 30.4389C157.366 30.2765 157.495 30.076 157.585 29.8374L158.992 30.0909C158.879 30.5052 158.677 30.8681 158.385 31.1797C158.097 31.4879 157.734 31.7282 157.297 31.9006C156.862 32.0696 156.367 32.1541 155.81 32.1541ZM164.56 32V21.8182H166.047V25.6016H166.136C166.222 25.4425 166.346 25.2585 166.509 25.0497C166.671 24.8409 166.897 24.6586 167.185 24.5028C167.473 24.3438 167.855 24.2642 168.328 24.2642C168.945 24.2642 169.495 24.42 169.979 24.7315C170.463 25.0431 170.842 25.4922 171.118 26.0788C171.396 26.6655 171.535 27.3714 171.535 28.1967C171.535 29.022 171.398 29.7296 171.123 30.3196C170.847 30.9062 170.47 31.3587 169.989 31.6768C169.508 31.9917 168.96 32.1491 168.343 32.1491C167.879 32.1491 167.5 32.0713 167.205 31.9155C166.913 31.7597 166.685 31.5774 166.519 31.3686C166.353 31.1598 166.225 30.9742 166.136 30.8118H166.012V32H164.56ZM166.017 28.1818C166.017 28.7187 166.095 29.1894 166.25 29.5938C166.406 29.9981 166.632 30.3146 166.926 30.5433C167.221 30.7687 167.583 30.8814 168.01 30.8814C168.454 30.8814 168.826 30.7637 169.124 30.5284C169.422 30.2898 169.648 29.9666 169.8 29.5589C169.956 29.1513 170.034 28.6922 170.034 28.1818C170.034 27.678 169.958 27.2256 169.805 26.8246C169.656 26.4235 169.431 26.107 169.129 25.875C168.831 25.643 168.458 25.527 168.01 25.527C167.579 25.527 167.215 25.638 166.917 25.8601C166.622 26.0821 166.398 26.392 166.245 26.7898C166.093 27.1875 166.017 27.6515 166.017 28.1818ZM176.421 32.1541C175.705 32.1541 175.08 31.9901 174.547 31.6619C174.013 31.3338 173.599 30.8748 173.304 30.2848C173.009 29.6948 172.861 29.0054 172.861 28.2166C172.861 27.4245 173.009 26.7318 173.304 26.1385C173.599 25.5452 174.013 25.0845 174.547 24.7564C175.08 24.4283 175.705 24.2642 176.421 24.2642C177.137 24.2642 177.762 24.4283 178.295 24.7564C178.829 25.0845 179.243 25.5452 179.538 26.1385C179.833 26.7318 179.981 27.4245 179.981 28.2166C179.981 29.0054 179.833 29.6948 179.538 30.2848C179.243 30.8748 178.829 31.3338 178.295 31.6619C177.762 31.9901 177.137 32.1541 176.421 32.1541ZM176.426 30.9062C176.89 30.9062 177.274 30.7836 177.579 30.5384C177.884 30.2931 178.11 29.9666 178.256 29.5589C178.405 29.1513 178.479 28.7022 178.479 28.2116C178.479 27.7244 178.405 27.277 178.256 26.8693C178.11 26.4583 177.884 26.1286 177.579 25.88C177.274 25.6314 176.89 25.5071 176.426 25.5071C175.959 25.5071 175.571 25.6314 175.263 25.88C174.958 26.1286 174.731 26.4583 174.581 26.8693C174.436 27.277 174.363 27.7244 174.363 28.2116C174.363 28.7022 174.436 29.1513 174.581 29.5589C174.731 29.9666 174.958 30.2931 175.263 30.5384C175.571 30.7836 175.959 30.9062 176.426 30.9062ZM183.862 32.169C183.378 32.169 182.941 32.0795 182.55 31.9006C182.159 31.7183 181.849 31.4548 181.62 31.1101C181.395 30.7654 181.282 30.3428 181.282 29.8423C181.282 29.4115 181.365 29.0568 181.531 28.7784C181.696 28.5 181.92 28.2796 182.202 28.1172C182.483 27.9548 182.798 27.8321 183.146 27.7493C183.494 27.6664 183.849 27.6035 184.21 27.5604C184.668 27.5073 185.039 27.4643 185.324 27.4311C185.609 27.3946 185.816 27.3366 185.945 27.2571C186.075 27.1776 186.139 27.0483 186.139 26.8693V26.8345C186.139 26.4003 186.017 26.0639 185.771 25.8253C185.529 25.5866 185.168 25.4673 184.688 25.4673C184.187 25.4673 183.793 25.5784 183.504 25.8004C183.219 26.0192 183.022 26.2628 182.913 26.5312L181.516 26.2131C181.681 25.7491 181.923 25.3745 182.241 25.0895C182.563 24.8011 182.933 24.5923 183.35 24.4631C183.768 24.3305 184.207 24.2642 184.668 24.2642C184.973 24.2642 185.296 24.3007 185.637 24.3736C185.982 24.4432 186.303 24.5724 186.602 24.7614C186.903 24.9503 187.15 25.2204 187.342 25.5717C187.535 25.9197 187.631 26.3722 187.631 26.929V32H186.179V30.956H186.119C186.023 31.1482 185.879 31.3371 185.687 31.5227C185.495 31.7083 185.248 31.8625 184.946 31.9851C184.644 32.1077 184.283 32.169 183.862 32.169ZM184.185 30.9759C184.596 30.9759 184.948 30.8946 185.239 30.7322C185.534 30.5698 185.758 30.3577 185.911 30.0959C186.066 29.8307 186.144 29.5473 186.144 29.2457V28.2614C186.091 28.3144 185.988 28.3641 185.836 28.4105C185.687 28.4536 185.516 28.4917 185.324 28.5249C185.132 28.5547 184.944 28.5829 184.762 28.6094C184.58 28.6326 184.427 28.6525 184.305 28.669C184.016 28.7055 183.753 28.7668 183.514 28.853C183.279 28.9392 183.09 29.0634 182.947 29.2259C182.808 29.3849 182.739 29.5971 182.739 29.8622C182.739 30.2301 182.875 30.5085 183.146 30.6974C183.418 30.883 183.764 30.9759 184.185 30.9759ZM189.611 32V24.3636H191.047V25.5767H191.127C191.266 25.1657 191.511 24.8426 191.863 24.6072C192.217 24.3686 192.618 24.2493 193.066 24.2493C193.159 24.2493 193.268 24.2526 193.394 24.2592C193.523 24.2659 193.624 24.2741 193.697 24.2841V25.706C193.638 25.6894 193.532 25.6712 193.379 25.6513C193.227 25.6281 193.074 25.6165 192.922 25.6165C192.57 25.6165 192.257 25.6911 191.982 25.8402C191.71 25.986 191.495 26.1899 191.336 26.4517C191.177 26.7102 191.097 27.0052 191.097 27.3366V32H189.611ZM197.569 32.1491C196.952 32.1491 196.402 31.9917 195.918 31.6768C195.438 31.3587 195.06 30.9062 194.785 30.3196C194.513 29.7296 194.377 29.022 194.377 28.1967C194.377 27.3714 194.515 26.6655 194.79 26.0788C195.068 25.4922 195.449 25.0431 195.933 24.7315C196.417 24.42 196.966 24.2642 197.579 24.2642C198.053 24.2642 198.434 24.3438 198.722 24.5028C199.014 24.6586 199.239 24.8409 199.398 25.0497C199.561 25.2585 199.687 25.4425 199.776 25.6016H199.866V21.8182H201.352V32H199.901V30.8118H199.776C199.687 30.9742 199.558 31.1598 199.388 31.3686C199.223 31.5774 198.994 31.7597 198.702 31.9155C198.411 32.0713 198.033 32.1491 197.569 32.1491ZM197.897 30.8814C198.325 30.8814 198.686 30.7687 198.981 30.5433C199.279 30.3146 199.504 29.9981 199.657 29.5938C199.813 29.1894 199.891 28.7187 199.891 28.1818C199.891 27.6515 199.814 27.1875 199.662 26.7898C199.509 26.392 199.286 26.0821 198.991 25.8601C198.696 25.638 198.331 25.527 197.897 25.527C197.45 25.527 197.077 25.643 196.778 25.875C196.48 26.107 196.255 26.4235 196.102 26.8246C195.953 27.2256 195.879 27.678 195.879 28.1818C195.879 28.6922 195.955 29.1513 196.107 29.5589C196.26 29.9666 196.485 30.2898 196.783 30.5284C197.085 30.7637 197.456 30.8814 197.897 30.8814ZM206.796 23.1406V21.8182H214.676V23.1406H211.499V32H209.968V23.1406H206.796ZM218.407 32.1541C217.691 32.1541 217.067 31.9901 216.533 31.6619C215.999 31.3338 215.585 30.8748 215.29 30.2848C214.995 29.6948 214.848 29.0054 214.848 28.2166C214.848 27.4245 214.995 26.7318 215.29 26.1385C215.585 25.5452 215.999 25.0845 216.533 24.7564C217.067 24.4283 217.691 24.2642 218.407 24.2642C219.123 24.2642 219.748 24.4283 220.282 24.7564C220.815 25.0845 221.23 25.5452 221.525 26.1385C221.819 26.7318 221.967 27.4245 221.967 28.2166C221.967 29.0054 221.819 29.6948 221.525 30.2848C221.23 30.8748 220.815 31.3338 220.282 31.6619C219.748 31.9901 219.123 32.1541 218.407 32.1541ZM218.412 30.9062C218.876 30.9062 219.261 30.7836 219.566 30.5384C219.871 30.2931 220.096 29.9666 220.242 29.5589C220.391 29.1513 220.466 28.7022 220.466 28.2116C220.466 27.7244 220.391 27.277 220.242 26.8693C220.096 26.4583 219.871 26.1286 219.566 25.88C219.261 25.6314 218.876 25.5071 218.412 25.5071C217.945 25.5071 217.557 25.6314 217.249 25.88C216.944 26.1286 216.717 26.4583 216.568 26.8693C216.422 27.277 216.349 27.7244 216.349 28.2116C216.349 28.7022 216.422 29.1513 216.568 29.5589C216.717 29.9666 216.944 30.2931 217.249 30.5384C217.557 30.7836 217.945 30.9062 218.412 30.9062ZM223.626 34.8636V24.3636H225.078V25.6016H225.202C225.288 25.4425 225.413 25.2585 225.575 25.0497C225.738 24.8409 225.963 24.6586 226.251 24.5028C226.54 24.3438 226.921 24.2642 227.395 24.2642C228.011 24.2642 228.561 24.42 229.045 24.7315C229.529 25.0431 229.909 25.4922 230.184 26.0788C230.462 26.6655 230.601 27.3714 230.601 28.1967C230.601 29.022 230.464 29.7296 230.189 30.3196C229.914 30.9062 229.536 31.3587 229.055 31.6768C228.575 31.9917 228.026 32.1491 227.41 32.1491C226.946 32.1491 226.566 32.0713 226.271 31.9155C225.979 31.7597 225.751 31.5774 225.585 31.3686C225.419 31.1598 225.292 30.9742 225.202 30.8118H225.113V34.8636H223.626ZM225.083 28.1818C225.083 28.7187 225.161 29.1894 225.317 29.5938C225.472 29.9981 225.698 30.3146 225.993 30.5433C226.288 30.7687 226.649 30.8814 227.077 30.8814C227.521 30.8814 227.892 30.7637 228.19 30.5284C228.488 30.2898 228.714 29.9666 228.866 29.5589C229.022 29.1513 229.1 28.6922 229.1 28.1818C229.1 27.678 229.024 27.2256 228.871 26.8246C228.722 26.4235 228.497 26.107 228.195 25.875C227.897 25.643 227.524 25.527 227.077 25.527C226.646 25.527 226.281 25.638 225.983 25.8601C225.688 26.0821 225.464 26.392 225.312 26.7898C225.159 27.1875 225.083 27.6515 225.083 28.1818ZM232.267 34.8636V24.3636H233.719V25.6016H233.843C233.929 25.4425 234.053 25.2585 234.216 25.0497C234.378 24.8409 234.604 24.6586 234.892 24.5028C235.18 24.3438 235.561 24.2642 236.035 24.2642C236.652 24.2642 237.202 24.42 237.686 24.7315C238.17 25.0431 238.549 25.4922 238.824 26.0788C239.103 26.6655 239.242 27.3714 239.242 28.1967C239.242 29.022 239.104 29.7296 238.829 30.3196C238.554 30.9062 238.176 31.3587 237.696 31.6768C237.215 31.9917 236.667 32.1491 236.05 32.1491C235.586 32.1491 235.207 32.0713 234.912 31.9155C234.62 31.7597 234.391 31.5774 234.226 31.3686C234.06 31.1598 233.932 30.9742 233.843 30.8118H233.753V34.8636H232.267ZM233.724 28.1818C233.724 28.7187 233.801 29.1894 233.957 29.5938C234.113 29.9981 234.338 30.3146 234.633 30.5433C234.928 30.7687 235.29 30.8814 235.717 30.8814C236.161 30.8814 236.532 30.7637 236.831 30.5284C237.129 30.2898 237.354 29.9666 237.507 29.5589C237.663 29.1513 237.741 28.6922 237.741 28.1818C237.741 27.678 237.664 27.2256 237.512 26.8246C237.363 26.4235 237.137 26.107 236.836 25.875C236.537 25.643 236.165 25.527 235.717 25.527C235.286 25.527 234.922 25.638 234.623 25.8601C234.328 26.0821 234.105 26.392 233.952 26.7898C233.8 27.1875 233.724 27.6515 233.724 28.1818ZM244.199 32.1541C243.446 32.1541 242.798 31.9934 242.255 31.6719C241.715 31.3471 241.297 30.8913 241.002 30.3047C240.71 29.7147 240.564 29.0237 240.564 28.2315C240.564 27.4493 240.71 26.7599 241.002 26.1634C241.297 25.5668 241.708 25.1011 242.235 24.7663C242.765 24.4316 243.385 24.2642 244.094 24.2642C244.525 24.2642 244.943 24.3355 245.347 24.478C245.751 24.6205 246.114 24.8442 246.436 25.1491C246.757 25.4541 247.011 25.8501 247.197 26.3374C247.382 26.8213 247.475 27.4096 247.475 28.1023V28.6293H241.405V27.5156H246.018C246.018 27.1245 245.939 26.7782 245.78 26.4766C245.621 26.1716 245.397 25.9313 245.108 25.7557C244.823 25.58 244.489 25.4922 244.104 25.4922C243.687 25.4922 243.322 25.5949 243.01 25.8004C242.702 26.0026 242.464 26.2678 242.295 26.5959C242.129 26.9207 242.046 27.2737 242.046 27.6548V28.5249C242.046 29.0353 242.135 29.4695 242.314 29.8274C242.497 30.1854 242.75 30.4588 243.075 30.6477C243.4 30.8333 243.779 30.9261 244.214 30.9261C244.495 30.9261 244.752 30.8864 244.984 30.8068C245.216 30.724 245.417 30.6013 245.586 30.4389C245.755 30.2765 245.884 30.076 245.974 29.8374L247.381 30.0909C247.268 30.5052 247.066 30.8681 246.774 31.1797C246.486 31.4879 246.123 31.7282 245.685 31.9006C245.251 32.0696 244.756 32.1541 244.199 32.1541ZM249.124 32V24.3636H250.561V25.5767H250.641C250.78 25.1657 251.025 24.8426 251.376 24.6072C251.731 24.3686 252.132 24.2493 252.58 24.2493C252.672 24.2493 252.782 24.2526 252.908 24.2592C253.037 24.2659 253.138 24.2741 253.211 24.2841V25.706C253.151 25.6894 253.045 25.6712 252.893 25.6513C252.74 25.6281 252.588 25.6165 252.435 25.6165C252.084 25.6165 251.771 25.6911 251.496 25.8402C251.224 25.986 251.009 26.1899 250.849 26.4517C250.69 26.7102 250.611 27.0052 250.611 27.3366V32H249.124ZM260.22 26.228L258.872 26.4666C258.816 26.2943 258.727 26.1302 258.604 25.9744C258.485 25.8187 258.322 25.6911 258.117 25.5916C257.911 25.4922 257.654 25.4425 257.346 25.4425C256.925 25.4425 256.574 25.5369 256.292 25.7259C256.01 25.9115 255.869 26.1518 255.869 26.4467C255.869 26.7019 255.964 26.9074 256.153 27.0632C256.342 27.219 256.647 27.3466 257.068 27.446L258.281 27.7244C258.983 27.8868 259.507 28.1371 259.852 28.4751C260.196 28.8132 260.369 29.2524 260.369 29.7926C260.369 30.25 260.236 30.6577 259.971 31.0156C259.709 31.3703 259.343 31.6487 258.872 31.8509C258.405 32.053 257.863 32.1541 257.247 32.1541C256.392 32.1541 255.694 31.9718 255.154 31.6072C254.613 31.2393 254.282 30.7173 254.159 30.0412L255.596 29.8224C255.686 30.197 255.869 30.4804 256.148 30.6726C256.426 30.8615 256.789 30.956 257.237 30.956C257.724 30.956 258.113 30.8549 258.405 30.6527C258.697 30.4472 258.843 30.197 258.843 29.902C258.843 29.6634 258.753 29.4628 258.574 29.3004C258.398 29.138 258.128 29.0154 257.764 28.9325L256.471 28.6491C255.758 28.4867 255.231 28.2282 254.89 27.8736C254.552 27.5189 254.383 27.0698 254.383 26.5263C254.383 26.0755 254.509 25.6811 254.761 25.343C255.013 25.005 255.361 24.7415 255.805 24.5526C256.249 24.3603 256.758 24.2642 257.331 24.2642C258.156 24.2642 258.806 24.4432 259.28 24.8011C259.754 25.1558 260.067 25.6314 260.22 26.228ZM11.9993 55.8636V45.3636H13.451V46.6016H13.5753C13.6615 46.4425 13.7857 46.2585 13.9482 46.0497C14.1106 45.8409 14.3359 45.6586 14.6243 45.5028C14.9126 45.3438 15.2938 45.2642 15.7678 45.2642C16.3842 45.2642 16.9344 45.42 17.4183 45.7315C17.9022 46.0431 18.2817 46.4922 18.5568 47.0788C18.8352 47.6655 18.9744 48.3714 18.9744 49.1967C18.9744 50.022 18.8369 50.7296 18.5618 51.3196C18.2867 51.9062 17.9089 52.3587 17.4283 52.6768C16.9477 52.9917 16.3991 53.1491 15.7827 53.1491C15.3187 53.1491 14.9392 53.0713 14.6442 52.9155C14.3525 52.7597 14.1238 52.5774 13.9581 52.3686C13.7924 52.1598 13.6648 51.9742 13.5753 51.8118H13.4858V55.8636H11.9993ZM13.456 49.1818C13.456 49.7187 13.5339 50.1894 13.6896 50.5938C13.8454 50.9981 14.0708 51.3146 14.3658 51.5433C14.6607 51.7687 15.022 51.8814 15.4496 51.8814C15.8937 51.8814 16.2649 51.7637 16.5632 51.5284C16.8615 51.2898 17.0869 50.9666 17.2393 50.5589C17.3951 50.1513 17.473 49.6922 17.473 49.1818C17.473 48.678 17.3968 48.2256 17.2443 47.8246C17.0952 47.4235 16.8698 47.107 16.5682 46.875C16.2699 46.643 15.897 46.527 15.4496 46.527C15.0187 46.527 14.6541 46.638 14.3558 46.8601C14.0608 47.0821 13.8371 47.392 13.6847 47.7898C13.5322 48.1875 13.456 48.6515 13.456 49.1818ZM25.4773 49.8331V45.3636H26.9688V53H25.5071V51.6776H25.4276C25.2519 52.0852 24.9702 52.425 24.5824 52.6967C24.1979 52.9652 23.719 53.0994 23.1456 53.0994C22.6551 53.0994 22.2209 52.9917 21.843 52.7763C21.4685 52.5575 21.1735 52.2344 20.9581 51.8068C20.746 51.3793 20.6399 50.8506 20.6399 50.2209V45.3636H22.1264V50.0419C22.1264 50.5623 22.2706 50.9766 22.5589 51.2848C22.8473 51.593 23.2218 51.7472 23.6825 51.7472C23.9609 51.7472 24.2377 51.6776 24.5128 51.5384C24.7912 51.3991 25.0215 51.1887 25.2038 50.907C25.3894 50.6252 25.4806 50.2673 25.4773 49.8331ZM28.9661 53V45.3636H30.4029V46.5767H30.4824C30.6216 46.1657 30.8669 45.8426 31.2182 45.6072C31.5729 45.3686 31.9739 45.2493 32.4213 45.2493C32.5141 45.2493 32.6235 45.2526 32.7495 45.2592C32.8787 45.2659 32.9798 45.2741 33.0527 45.2841V46.706C32.9931 46.6894 32.887 46.6712 32.7346 46.6513C32.5821 46.6281 32.4296 46.6165 32.2772 46.6165C31.9258 46.6165 31.6126 46.6911 31.3375 46.8402C31.0658 46.986 30.8503 47.1899 30.6912 47.4517C30.5321 47.7102 30.4526 48.0052 30.4526 48.3366V53H28.9661ZM37.2823 53.1541C36.5432 53.1541 35.9068 52.9867 35.3732 52.652C34.8429 52.3139 34.4353 51.8482 34.1502 51.255C33.8652 50.6617 33.7227 49.9822 33.7227 49.2166C33.7227 48.4411 33.8685 47.7566 34.1602 47.1634C34.4518 46.5668 34.8628 46.1011 35.3931 45.7663C35.9234 45.4316 36.5482 45.2642 37.2674 45.2642C37.8474 45.2642 38.3645 45.3719 38.8185 45.5874C39.2726 45.7995 39.6388 46.0978 39.9173 46.4822C40.199 46.8667 40.3664 47.3158 40.4194 47.8295H38.9727C38.8931 47.4716 38.7108 47.1634 38.4258 46.9048C38.1441 46.6463 37.7662 46.517 37.2923 46.517C36.878 46.517 36.515 46.6264 36.2035 46.8452C35.8952 47.0606 35.6549 47.3688 35.4826 47.7699C35.3103 48.1676 35.2241 48.6383 35.2241 49.1818C35.2241 49.7386 35.3086 50.2192 35.4776 50.6236C35.6467 51.0279 35.8853 51.3411 36.1935 51.5632C36.5051 51.7853 36.8713 51.8963 37.2923 51.8963C37.574 51.8963 37.8292 51.8449 38.0579 51.7422C38.2899 51.6361 38.4838 51.4853 38.6396 51.2898C38.7987 51.0942 38.9097 50.8589 38.9727 50.5838H40.4194C40.3664 51.0777 40.2056 51.5185 39.9371 51.9062C39.6687 52.294 39.3091 52.599 38.8583 52.821C38.4109 53.0431 37.8855 53.1541 37.2823 53.1541ZM43.4956 48.4659V53H42.0091V42.8182H43.4757V46.6065H43.5701C43.7491 46.1955 44.0225 45.8691 44.3904 45.6271C44.7583 45.3852 45.2389 45.2642 45.8322 45.2642C46.3559 45.2642 46.8133 45.3719 47.2044 45.5874C47.5988 45.8028 47.9037 46.1243 48.1191 46.5518C48.3379 46.9761 48.4473 47.5064 48.4473 48.1428V53H46.9608V48.3217C46.9608 47.7616 46.8166 47.3274 46.5282 47.0192C46.2399 46.7076 45.8388 46.5518 45.3251 46.5518C44.9738 46.5518 44.6589 46.6264 44.3805 46.7756C44.1054 46.9247 43.8883 47.1435 43.7292 47.4318C43.5734 47.7169 43.4956 48.0616 43.4956 48.4659ZM52.6532 53.169C52.1693 53.169 51.7318 53.0795 51.3407 52.9006C50.9496 52.7183 50.6397 52.4548 50.411 52.1101C50.1857 51.7654 50.073 51.3428 50.073 50.8423C50.073 50.4115 50.1558 50.0568 50.3216 49.7784C50.4873 49.5 50.711 49.2796 50.9927 49.1172C51.2744 48.9548 51.5893 48.8321 51.9373 48.7493C52.2853 48.6664 52.64 48.6035 53.0012 48.5604C53.4586 48.5073 53.8298 48.4643 54.1149 48.4311C54.3999 48.3946 54.6071 48.3366 54.7363 48.2571C54.8656 48.1776 54.9302 48.0483 54.9302 47.8693V47.8345C54.9302 47.4003 54.8076 47.0639 54.5623 46.8253C54.3204 46.5866 53.9591 46.4673 53.4785 46.4673C52.978 46.4673 52.5836 46.5784 52.2953 46.8004C52.0102 47.0192 51.813 47.2628 51.7037 47.5312L50.3066 47.2131C50.4724 46.7491 50.7143 46.3745 51.0325 46.0895C51.354 45.8011 51.7235 45.5923 52.1412 45.4631C52.5588 45.3305 52.9979 45.2642 53.4586 45.2642C53.7636 45.2642 54.0867 45.3007 54.4281 45.3736C54.7728 45.4432 55.0943 45.5724 55.3926 45.7614C55.6942 45.9503 55.9411 46.2204 56.1333 46.5717C56.3256 46.9197 56.4217 47.3722 56.4217 47.929V53H54.97V51.956H54.9103C54.8142 52.1482 54.67 52.3371 54.4778 52.5227C54.2856 52.7083 54.0386 52.8625 53.737 52.9851C53.4354 53.1077 53.0742 53.169 52.6532 53.169ZM52.9764 51.9759C53.3874 51.9759 53.7387 51.8946 54.0304 51.7322C54.3253 51.5698 54.5491 51.3577 54.7015 51.0959C54.8573 50.8307 54.9352 50.5473 54.9352 50.2457V49.2614C54.8822 49.3144 54.7794 49.3641 54.627 49.4105C54.4778 49.4536 54.3071 49.4917 54.1149 49.5249C53.9226 49.5547 53.7354 49.5829 53.5531 49.6094C53.3708 49.6326 53.2183 49.6525 53.0957 49.669C52.8074 49.7055 52.5439 49.7668 52.3052 49.853C52.0699 49.9392 51.881 50.0634 51.7385 50.2259C51.5993 50.3849 51.5297 50.5971 51.5297 50.8622C51.5297 51.2301 51.6655 51.5085 51.9373 51.6974C52.2091 51.883 52.5555 51.9759 52.9764 51.9759ZM64.1239 47.228L62.7766 47.4666C62.7203 47.2943 62.6308 47.1302 62.5082 46.9744C62.3888 46.8187 62.2264 46.6911 62.021 46.5916C61.8155 46.4922 61.5586 46.4425 61.2504 46.4425C60.8294 46.4425 60.4781 46.5369 60.1964 46.7259C59.9147 46.9115 59.7738 47.1518 59.7738 47.4467C59.7738 47.7019 59.8683 47.9074 60.0572 48.0632C60.2461 48.219 60.551 48.3466 60.9719 48.446L62.185 48.7244C62.8877 48.8868 63.4113 49.1371 63.756 49.4751C64.1007 49.8132 64.2731 50.2524 64.2731 50.7926C64.2731 51.25 64.1405 51.6577 63.8754 52.0156C63.6135 52.3703 63.2473 52.6487 62.7766 52.8509C62.3093 53.053 61.7674 53.1541 61.1509 53.1541C60.2958 53.1541 59.5981 52.9718 59.0579 52.6072C58.5176 52.2393 58.1862 51.7173 58.0636 51.0412L59.5004 50.8224C59.5898 51.197 59.7738 51.4804 60.0522 51.6726C60.3306 51.8615 60.6935 51.956 61.141 51.956C61.6282 51.956 62.0176 51.8549 62.3093 51.6527C62.601 51.4472 62.7468 51.197 62.7468 50.902C62.7468 50.6634 62.6573 50.4628 62.4783 50.3004C62.3027 50.138 62.0326 50.0154 61.668 49.9325L60.3754 49.6491C59.6628 49.4867 59.1358 49.2282 58.7944 48.8736C58.4563 48.5189 58.2873 48.0698 58.2873 47.5263C58.2873 47.0755 58.4132 46.6811 58.6651 46.343C58.917 46.005 59.265 45.7415 59.7092 45.5526C60.1533 45.3603 60.6621 45.2642 61.2354 45.2642C62.0607 45.2642 62.7103 45.4432 63.1843 45.8011C63.6583 46.1558 63.9715 46.6314 64.1239 47.228ZM69.1987 53.1541C68.4463 53.1541 67.7984 52.9934 67.2548 52.6719C66.7145 52.3471 66.2969 51.8913 66.002 51.3047C65.7103 50.7147 65.5645 50.0237 65.5645 49.2315C65.5645 48.4493 65.7103 47.7599 66.002 47.1634C66.2969 46.5668 66.7079 46.1011 67.2349 45.7663C67.7652 45.4316 68.385 45.2642 69.0943 45.2642C69.5252 45.2642 69.9428 45.3355 70.3471 45.478C70.7515 45.6205 71.1144 45.8442 71.4359 46.1491C71.7574 46.4541 72.0109 46.8501 72.1966 47.3374C72.3822 47.8213 72.475 48.4096 72.475 49.1023V49.6293H66.4047V48.5156H71.0183C71.0183 48.1245 70.9387 47.7782 70.7797 47.4766C70.6206 47.1716 70.3968 46.9313 70.1085 46.7557C69.8234 46.58 69.4887 46.4922 69.1042 46.4922C68.6866 46.4922 68.322 46.5949 68.0105 46.8004C67.7022 47.0026 67.4636 47.2678 67.2946 47.5959C67.1288 47.9207 67.046 48.2737 67.046 48.6548V49.5249C67.046 50.0353 67.1355 50.4695 67.3145 50.8274C67.4967 51.1854 67.7503 51.4588 68.0751 51.6477C68.3999 51.8333 68.7794 51.9261 69.2136 51.9261C69.4953 51.9261 69.7522 51.8864 69.9842 51.8068C70.2162 51.724 70.4167 51.6013 70.5858 51.4389C70.7548 51.2765 70.8841 51.076 70.9735 50.8374L72.3805 51.0909C72.2678 51.5052 72.0656 51.8681 71.774 52.1797C71.4856 52.4879 71.1227 52.7282 70.6852 52.9006C70.251 53.0696 69.7555 53.1541 69.1987 53.1541ZM76.983 53.1491C76.3665 53.1491 75.8163 52.9917 75.3324 52.6768C74.8518 52.3587 74.474 51.9062 74.1989 51.3196C73.9271 50.7296 73.7912 50.022 73.7912 49.1967C73.7912 48.3714 73.9287 47.6655 74.2038 47.0788C74.4822 46.4922 74.8634 46.0431 75.3473 45.7315C75.8312 45.42 76.3797 45.2642 76.9929 45.2642C77.4669 45.2642 77.848 45.3438 78.1364 45.5028C78.428 45.6586 78.6534 45.8409 78.8125 46.0497C78.9749 46.2585 79.1009 46.4425 79.1903 46.6016H79.2798V42.8182H80.7663V53H79.3146V51.8118H79.1903C79.1009 51.9742 78.9716 52.1598 78.8026 52.3686C78.6368 52.5774 78.4081 52.7597 78.1165 52.9155C77.8248 53.0713 77.447 53.1491 76.983 53.1491ZM77.3111 51.8814C77.7386 51.8814 78.0999 51.7687 78.3949 51.5433C78.6932 51.3146 78.9186 50.9981 79.071 50.5938C79.2268 50.1894 79.3047 49.7187 79.3047 49.1818C79.3047 48.6515 79.2285 48.1875 79.076 47.7898C78.9235 47.392 78.6998 47.0821 78.4048 46.8601C78.1098 46.638 77.7453 46.527 77.3111 46.527C76.8636 46.527 76.4908 46.643 76.1925 46.875C75.8942 47.107 75.6688 47.4235 75.5163 47.8246C75.3672 48.2256 75.2926 48.678 75.2926 49.1818C75.2926 49.6922 75.3688 50.1513 75.5213 50.5589C75.6738 50.9666 75.8991 51.2898 76.1974 51.5284C76.4991 51.7637 76.8703 51.8814 77.3111 51.8814ZM93.1257 45.3636L90.3565 53H88.7656L85.9915 45.3636H87.5874L89.5213 51.2401H89.6009L91.5298 45.3636H93.1257ZM94.5227 53V45.3636H96.0092V53H94.5227ZM95.2734 44.1854C95.0149 44.1854 94.7929 44.0992 94.6072 43.9268C94.425 43.7512 94.3338 43.5424 94.3338 43.3004C94.3338 43.0552 94.425 42.8464 94.6072 42.674C94.7929 42.4983 95.0149 42.4105 95.2734 42.4105C95.532 42.4105 95.7524 42.4983 95.9347 42.674C96.1203 42.8464 96.2131 43.0552 96.2131 43.3004C96.2131 43.5424 96.1203 43.7512 95.9347 43.9268C95.7524 44.0992 95.532 44.1854 95.2734 44.1854ZM100.868 53.1491C100.251 53.1491 99.7011 52.9917 99.2172 52.6768C98.7366 52.3587 98.3587 51.9062 98.0836 51.3196C97.8118 50.7296 97.676 50.022 97.676 49.1967C97.676 48.3714 97.8135 47.6655 98.0886 47.0788C98.367 46.4922 98.7482 46.0431 99.2321 45.7315C99.716 45.42 100.265 45.2642 100.878 45.2642C101.352 45.2642 101.733 45.3438 102.021 45.5028C102.313 45.6586 102.538 45.8409 102.697 46.0497C102.86 46.2585 102.986 46.4425 103.075 46.6016H103.165V42.8182H104.651V53H103.199V51.8118H103.075C102.986 51.9742 102.856 52.1598 102.687 52.3686C102.522 52.5774 102.293 52.7597 102.001 52.9155C101.71 53.0713 101.332 53.1491 100.868 53.1491ZM101.196 51.8814C101.623 51.8814 101.985 51.7687 102.28 51.5433C102.578 51.3146 102.803 50.9981 102.956 50.5938C103.112 50.1894 103.189 49.7187 103.189 49.1818C103.189 48.6515 103.113 48.1875 102.961 47.7898C102.808 47.392 102.585 47.0821 102.29 46.8601C101.995 46.638 101.63 46.527 101.196 46.527C100.748 46.527 100.376 46.643 100.077 46.875C99.7789 47.107 99.5536 47.4235 99.4011 47.8246C99.252 48.2256 99.1774 48.678 99.1774 49.1818C99.1774 49.6922 99.2536 50.1513 99.4061 50.5589C99.5585 50.9666 99.7839 51.2898 100.082 51.5284C100.384 51.7637 100.755 51.8814 101.196 51.8814ZM107.712 55.8636C107.49 55.8636 107.288 55.8454 107.106 55.8089C106.924 55.7758 106.788 55.7393 106.698 55.6996L107.056 54.4815C107.328 54.5545 107.57 54.5859 107.782 54.576C107.994 54.5661 108.181 54.4865 108.344 54.3374C108.509 54.1882 108.655 53.9446 108.781 53.6065L108.965 53.0994L106.171 45.3636H107.762L109.696 51.2898H109.776L111.71 45.3636H113.305L110.158 54.0192C110.013 54.4169 109.827 54.7533 109.602 55.0284C109.376 55.3068 109.108 55.5156 108.796 55.6548C108.485 55.794 108.123 55.8636 107.712 55.8636ZM116.706 53.169C116.222 53.169 115.785 53.0795 115.393 52.9006C115.002 52.7183 114.692 52.4548 114.464 52.1101C114.238 51.7654 114.126 51.3428 114.126 50.8423C114.126 50.4115 114.209 50.0568 114.374 49.7784C114.54 49.5 114.764 49.2796 115.045 49.1172C115.327 48.9548 115.642 48.8321 115.99 48.7493C116.338 48.6664 116.693 48.6035 117.054 48.5604C117.511 48.5073 117.883 48.4643 118.168 48.4311C118.453 48.3946 118.66 48.3366 118.789 48.2571C118.918 48.1776 118.983 48.0483 118.983 47.8693V47.8345C118.983 47.4003 118.86 47.0639 118.615 46.8253C118.373 46.5866 118.012 46.4673 117.531 46.4673C117.031 46.4673 116.636 46.5784 116.348 46.8004C116.063 47.0192 115.866 47.2628 115.756 47.5312L114.359 47.2131C114.525 46.7491 114.767 46.3745 115.085 46.0895C115.407 45.8011 115.776 45.5923 116.194 45.4631C116.612 45.3305 117.051 45.2642 117.511 45.2642C117.816 45.2642 118.139 45.3007 118.481 45.3736C118.826 45.4432 119.147 45.5724 119.445 45.7614C119.747 45.9503 119.994 46.2204 120.186 46.5717C120.378 46.9197 120.474 47.3722 120.474 47.929V53H119.023V51.956H118.963C118.867 52.1482 118.723 52.3371 118.531 52.5227C118.338 52.7083 118.091 52.8625 117.79 52.9851C117.488 53.1077 117.127 53.169 116.706 53.169ZM117.029 51.9759C117.44 51.9759 117.791 51.8946 118.083 51.7322C118.378 51.5698 118.602 51.3577 118.754 51.0959C118.91 50.8307 118.988 50.5473 118.988 50.2457V49.2614C118.935 49.3144 118.832 49.3641 118.68 49.4105C118.531 49.4536 118.36 49.4917 118.168 49.5249C117.975 49.5547 117.788 49.5829 117.606 49.6094C117.424 49.6326 117.271 49.6525 117.148 49.669C116.86 49.7055 116.597 49.7668 116.358 49.853C116.123 49.9392 115.934 50.0634 115.791 50.2259C115.652 50.3849 115.582 50.5971 115.582 50.8622C115.582 51.2301 115.718 51.5085 115.99 51.6974C116.262 51.883 116.608 51.9759 117.029 51.9759ZM123.822 50.4098L123.812 48.5952H124.07L127.113 45.3636H128.893L125.422 49.0426H125.189L123.822 50.4098ZM122.454 53V42.8182H123.941V53H122.454ZM127.277 53L124.542 49.3707L125.567 48.3317L129.101 53H127.277ZM135.085 49.8331V45.3636H136.576V53H135.115V51.6776H135.035C134.859 52.0852 134.578 52.425 134.19 52.6967C133.805 52.9652 133.326 53.0994 132.753 53.0994C132.262 53.0994 131.828 52.9917 131.45 52.7763C131.076 52.5575 130.781 52.2344 130.566 51.8068C130.353 51.3793 130.247 50.8506 130.247 50.2209V45.3636H131.734V50.0419C131.734 50.5623 131.878 50.9766 132.166 51.2848C132.455 51.593 132.829 51.7472 133.29 51.7472C133.568 51.7472 133.845 51.6776 134.12 51.5384C134.399 51.3991 134.629 51.1887 134.811 50.907C134.997 50.6252 135.088 50.2673 135.085 49.8331ZM140.06 42.8182V53H138.574V42.8182H140.06ZM151.487 47.228L150.14 47.4666C150.084 47.2943 149.994 47.1302 149.871 46.9744C149.752 46.8187 149.59 46.6911 149.384 46.5916C149.179 46.4922 148.922 46.4425 148.614 46.4425C148.193 46.4425 147.841 46.5369 147.56 46.7259C147.278 46.9115 147.137 47.1518 147.137 47.4467C147.137 47.7019 147.232 47.9074 147.42 48.0632C147.609 48.219 147.914 48.3466 148.335 48.446L149.548 48.7244C150.251 48.8868 150.775 49.1371 151.119 49.4751C151.464 49.8132 151.636 50.2524 151.636 50.7926C151.636 51.25 151.504 51.6577 151.239 52.0156C150.977 52.3703 150.611 52.6487 150.14 52.8509C149.673 53.053 149.131 53.1541 148.514 53.1541C147.659 53.1541 146.961 52.9718 146.421 52.6072C145.881 52.2393 145.549 51.7173 145.427 51.0412L146.864 50.8224C146.953 51.197 147.137 51.4804 147.415 51.6726C147.694 51.8615 148.057 51.956 148.504 51.956C148.991 51.956 149.381 51.8549 149.673 51.6527C149.964 51.4472 150.11 51.197 150.11 50.902C150.11 50.6634 150.021 50.4628 149.842 50.3004C149.666 50.138 149.396 50.0154 149.031 49.9325L147.739 49.6491C147.026 49.4867 146.499 49.2282 146.158 48.8736C145.82 48.5189 145.651 48.0698 145.651 47.5263C145.651 47.0755 145.777 46.6811 146.028 46.343C146.28 46.005 146.628 45.7415 147.072 45.5526C147.517 45.3603 148.025 45.2642 148.599 45.2642C149.424 45.2642 150.074 45.4432 150.548 45.8011C151.022 46.1558 151.335 46.6314 151.487 47.228ZM158.108 49.8331V45.3636H159.6V53H158.138V51.6776H158.058C157.883 52.0852 157.601 52.425 157.213 52.6967C156.829 52.9652 156.35 53.0994 155.776 53.0994C155.286 53.0994 154.852 52.9917 154.474 52.7763C154.099 52.5575 153.804 52.2344 153.589 51.8068C153.377 51.3793 153.271 50.8506 153.271 50.2209V45.3636H154.757V50.0419C154.757 50.5623 154.901 50.9766 155.19 51.2848C155.478 51.593 155.853 51.7472 156.313 51.7472C156.592 51.7472 156.869 51.6776 157.144 51.5384C157.422 51.3991 157.652 51.1887 157.835 50.907C158.02 50.6252 158.111 50.2673 158.108 49.8331ZM161.716 53V42.8182H163.203V46.6016H163.292C163.378 46.4425 163.503 46.2585 163.665 46.0497C163.828 45.8409 164.053 45.6586 164.341 45.5028C164.63 45.3438 165.011 45.2642 165.485 45.2642C166.101 45.2642 166.651 45.42 167.135 45.7315C167.619 46.0431 167.999 46.4922 168.274 47.0788C168.552 47.6655 168.691 48.3714 168.691 49.1967C168.691 50.022 168.554 50.7296 168.279 51.3196C168.004 51.9062 167.626 52.3587 167.145 52.6768C166.665 52.9917 166.116 53.1491 165.5 53.1491C165.036 53.1491 164.656 53.0713 164.361 52.9155C164.069 52.7597 163.841 52.5774 163.675 52.3686C163.509 52.1598 163.382 51.9742 163.292 51.8118H163.168V53H161.716ZM163.173 49.1818C163.173 49.7187 163.251 50.1894 163.407 50.5938C163.562 50.9981 163.788 51.3146 164.083 51.5433C164.378 51.7687 164.739 51.8814 165.167 51.8814C165.611 51.8814 165.982 51.7637 166.28 51.5284C166.578 51.2898 166.804 50.9666 166.956 50.5589C167.112 50.1513 167.19 49.6922 167.19 49.1818C167.19 48.678 167.114 48.2256 166.961 47.8246C166.812 47.4235 166.587 47.107 166.285 46.875C165.987 46.643 165.614 46.527 165.167 46.527C164.736 46.527 164.371 46.638 164.073 46.8601C163.778 47.0821 163.554 47.392 163.402 47.7898C163.249 48.1875 163.173 48.6515 163.173 49.1818ZM176.083 47.228L174.736 47.4666C174.679 47.2943 174.59 47.1302 174.467 46.9744C174.348 46.8187 174.185 46.6911 173.98 46.5916C173.774 46.4922 173.518 46.4425 173.209 46.4425C172.788 46.4425 172.437 46.5369 172.155 46.7259C171.874 46.9115 171.733 47.1518 171.733 47.4467C171.733 47.7019 171.827 47.9074 172.016 48.0632C172.205 48.219 172.51 48.3466 172.931 48.446L174.144 48.7244C174.847 48.8868 175.37 49.1371 175.715 49.4751C176.06 49.8132 176.232 50.2524 176.232 50.7926C176.232 51.25 176.099 51.6577 175.834 52.0156C175.573 52.3703 175.206 52.6487 174.736 52.8509C174.268 53.053 173.726 53.1541 173.11 53.1541C172.255 53.1541 171.557 52.9718 171.017 52.6072C170.477 52.2393 170.145 51.7173 170.023 51.0412L171.459 50.8224C171.549 51.197 171.733 51.4804 172.011 51.6726C172.29 51.8615 172.653 51.956 173.1 51.956C173.587 51.956 173.977 51.8549 174.268 51.6527C174.56 51.4472 174.706 51.197 174.706 50.902C174.706 50.6634 174.616 50.4628 174.437 50.3004C174.262 50.138 173.992 50.0154 173.627 49.9325L172.334 49.6491C171.622 49.4867 171.095 49.2282 170.753 48.8736C170.415 48.5189 170.246 48.0698 170.246 47.5263C170.246 47.0755 170.372 46.6811 170.624 46.343C170.876 46.005 171.224 45.7415 171.668 45.5526C172.112 45.3603 172.621 45.2642 173.194 45.2642C174.02 45.2642 174.669 45.4432 175.143 45.8011C175.617 46.1558 175.93 46.6314 176.083 47.228ZM181.083 53.1541C180.344 53.1541 179.708 52.9867 179.174 52.652C178.644 52.3139 178.236 51.8482 177.951 51.255C177.666 50.6617 177.523 49.9822 177.523 49.2166C177.523 48.4411 177.669 47.7566 177.961 47.1634C178.253 46.5668 178.664 46.1011 179.194 45.7663C179.724 45.4316 180.349 45.2642 181.068 45.2642C181.648 45.2642 182.165 45.3719 182.619 45.5874C183.073 45.7995 183.44 46.0978 183.718 46.4822C184 46.8667 184.167 47.3158 184.22 47.8295H182.773C182.694 47.4716 182.512 47.1634 182.227 46.9048C181.945 46.6463 181.567 46.517 181.093 46.517C180.679 46.517 180.316 46.6264 180.004 46.8452C179.696 47.0606 179.456 47.3688 179.283 47.7699C179.111 48.1676 179.025 48.6383 179.025 49.1818C179.025 49.7386 179.109 50.2192 179.278 50.6236C179.447 51.0279 179.686 51.3411 179.994 51.5632C180.306 51.7853 180.672 51.8963 181.093 51.8963C181.375 51.8963 181.63 51.8449 181.859 51.7422C182.091 51.6361 182.285 51.4853 182.44 51.2898C182.599 51.0942 182.71 50.8589 182.773 50.5838H184.22C184.167 51.0777 184.006 51.5185 183.738 51.9062C183.469 52.294 183.11 52.599 182.659 52.821C182.212 53.0431 181.686 53.1541 181.083 53.1541ZM185.81 53V45.3636H187.247V46.5767H187.326C187.465 46.1657 187.711 45.8426 188.062 45.6072C188.417 45.3686 188.818 45.2493 189.265 45.2493C189.358 45.2493 189.467 45.2526 189.593 45.2592C189.722 45.2659 189.824 45.2741 189.896 45.2841V46.706C189.837 46.6894 189.731 46.6712 189.578 46.6513C189.426 46.6281 189.273 46.6165 189.121 46.6165C188.77 46.6165 188.456 46.6911 188.181 46.8402C187.91 46.986 187.694 47.1899 187.535 47.4517C187.376 47.7102 187.296 48.0052 187.296 48.3366V53H185.81ZM191.183 53V45.3636H192.669V53H191.183ZM191.934 44.1854C191.675 44.1854 191.453 44.0992 191.267 43.9268C191.085 43.7512 190.994 43.5424 190.994 43.3004C190.994 43.0552 191.085 42.8464 191.267 42.674C191.453 42.4983 191.675 42.4105 191.934 42.4105C192.192 42.4105 192.413 42.4983 192.595 42.674C192.78 42.8464 192.873 43.0552 192.873 43.3004C192.873 43.5424 192.78 43.7512 192.595 43.9268C192.413 44.0992 192.192 44.1854 191.934 44.1854ZM194.669 55.8636V45.3636H196.121V46.6016H196.245C196.331 46.4425 196.456 46.2585 196.618 46.0497C196.78 45.8409 197.006 45.6586 197.294 45.5028C197.583 45.3438 197.964 45.2642 198.438 45.2642C199.054 45.2642 199.604 45.42 200.088 45.7315C200.572 46.0431 200.952 46.4922 201.227 47.0788C201.505 47.6655 201.644 48.3714 201.644 49.1967C201.644 50.022 201.507 50.7296 201.232 51.3196C200.957 51.9062 200.579 52.3587 200.098 52.6768C199.618 52.9917 199.069 53.1491 198.453 53.1491C197.989 53.1491 197.609 53.0713 197.314 52.9155C197.022 52.7597 196.794 52.5774 196.628 52.3686C196.462 52.1598 196.335 51.9742 196.245 51.8118H196.156V55.8636H194.669ZM196.126 49.1818C196.126 49.7187 196.204 50.1894 196.36 50.5938C196.515 50.9981 196.741 51.3146 197.036 51.5433C197.331 51.7687 197.692 51.8814 198.119 51.8814C198.564 51.8814 198.935 51.7637 199.233 51.5284C199.531 51.2898 199.757 50.9666 199.909 50.5589C200.065 50.1513 200.143 49.6922 200.143 49.1818C200.143 48.678 200.067 48.2256 199.914 47.8246C199.765 47.4235 199.54 47.107 199.238 46.875C198.94 46.643 198.567 46.527 198.119 46.527C197.689 46.527 197.324 46.638 197.026 46.8601C196.731 47.0821 196.507 47.392 196.355 47.7898C196.202 48.1875 196.126 48.6515 196.126 49.1818ZM206.874 45.3636V46.5568H202.703V45.3636H206.874ZM203.822 43.5341H205.308V50.7578C205.308 51.0462 205.352 51.2633 205.438 51.4091C205.524 51.5516 205.635 51.6494 205.771 51.7024C205.91 51.7521 206.061 51.777 206.223 51.777C206.343 51.777 206.447 51.7687 206.536 51.7521C206.626 51.7356 206.695 51.7223 206.745 51.7124L207.014 52.9403C206.927 52.9735 206.805 53.0066 206.646 53.0398C206.487 53.0762 206.288 53.0961 206.049 53.0994C205.658 53.1061 205.294 53.0365 204.955 52.8906C204.617 52.7448 204.344 52.5194 204.135 52.2145C203.926 51.9096 203.822 51.5268 203.822 51.0661V43.5341ZM208.519 53V45.3636H210.005V53H208.519ZM209.27 44.1854C209.011 44.1854 208.789 44.0992 208.603 43.9268C208.421 43.7512 208.33 43.5424 208.33 43.3004C208.33 43.0552 208.421 42.8464 208.603 42.674C208.789 42.4983 209.011 42.4105 209.27 42.4105C209.528 42.4105 209.748 42.4983 209.931 42.674C210.116 42.8464 210.209 43.0552 210.209 43.3004C210.209 43.5424 210.116 43.7512 209.931 43.9268C209.748 44.0992 209.528 44.1854 209.27 44.1854ZM215.222 53.1541C214.506 53.1541 213.881 52.9901 213.347 52.6619C212.814 52.3338 212.4 51.8748 212.105 51.2848C211.81 50.6948 211.662 50.0054 211.662 49.2166C211.662 48.4245 211.81 47.7318 212.105 47.1385C212.4 46.5452 212.814 46.0845 213.347 45.7564C213.881 45.4283 214.506 45.2642 215.222 45.2642C215.938 45.2642 216.562 45.4283 217.096 45.7564C217.63 46.0845 218.044 46.5452 218.339 47.1385C218.634 47.7318 218.781 48.4245 218.781 49.2166C218.781 50.0054 218.634 50.6948 218.339 51.2848C218.044 51.8748 217.63 52.3338 217.096 52.6619C216.562 52.9901 215.938 53.1541 215.222 53.1541ZM215.227 51.9062C215.691 51.9062 216.075 51.7836 216.38 51.5384C216.685 51.2931 216.91 50.9666 217.056 50.5589C217.205 50.1513 217.28 49.7022 217.28 49.2116C217.28 48.7244 217.205 48.277 217.056 47.8693C216.91 47.4583 216.685 47.1286 216.38 46.88C216.075 46.6314 215.691 46.5071 215.227 46.5071C214.759 46.5071 214.372 46.6314 214.063 46.88C213.758 47.1286 213.531 47.4583 213.382 47.8693C213.236 48.277 213.164 48.7244 213.164 49.2116C213.164 49.7022 213.236 50.1513 213.382 50.5589C213.531 50.9666 213.758 51.2931 214.063 51.5384C214.372 51.7836 214.759 51.9062 215.227 51.9062ZM221.927 48.4659V53H220.441V45.3636H221.868V46.6065H221.962C222.138 46.2022 222.413 45.8774 222.787 45.6321C223.165 45.3868 223.641 45.2642 224.214 45.2642C224.734 45.2642 225.19 45.3736 225.581 45.5923C225.972 45.8078 226.276 46.1293 226.491 46.5568C226.707 46.9844 226.814 47.513 226.814 48.1428V53H225.328V48.3217C225.328 47.7682 225.184 47.3357 224.895 47.0241C224.607 46.7093 224.211 46.5518 223.707 46.5518C223.362 46.5518 223.056 46.6264 222.787 46.7756C222.522 46.9247 222.312 47.1435 222.156 47.4318C222.003 47.7169 221.927 48.0616 221.927 48.4659Z" fill="#404040"/>
</g>
<rect x="2.25" y="2.25" width="343.5" height="67.5" rx="7.75" stroke="#6AB6ED" stroke-width="0.5"/>
</g>
<defs>
<filter id="filter0_d_946_17622" x="0" y="0" width="348" height="72" filterUnits="userSpaceOnUse" color-interpolation-filters="sRGB">
<feFlood flood-opacity="0" result="BackgroundImageFix"/>
<feColorMatrix in="SourceAlpha" type="matrix" values="0 0 0 0 0 0 0 0 0 0 0 0 0 0 0 0 0 0 127 0" result="hardAlpha"/>
<feOffset/>
<feGaussianBlur stdDeviation="1"/>
<feComposite in2="hardAlpha" operator="out"/>
<feColorMatrix type="matrix" values="0 0 0 0 0 0 0 0 0 0 0 0 0 0 0 0 0 0 0.25 0"/>
<feBlend mode="normal" in2="BackgroundImageFix" result="effect1_dropShadow_946_17622"/>
<feBlend mode="normal" in="SourceGraphic" in2="effect1_dropShadow_946_17622" result="shape"/>
</filter>
<filter id="filter1_f_946_17622" x="258.438" y="-14.5098" width="93.1238" height="96.2798" filterUnits="userSpaceOnUse" color-interpolation-filters="sRGB">
<feFlood flood-opacity="0" result="BackgroundImageFix"/>
<feBlend mode="normal" in="SourceGraphic" in2="BackgroundImageFix" result="shape"/>
<feGaussianBlur stdDeviation="2.5" result="effect1_foregroundBlur_946_17622"/>
</filter>
<filter id="filter2_f_946_17622" x="276.073" y="4.08398" width="57.8553" height="59.0933" filterUnits="userSpaceOnUse" color-interpolation-filters="sRGB">
<feFlood flood-opacity="0" result="BackgroundImageFix"/>
<feBlend mode="normal" in="SourceGraphic" in2="BackgroundImageFix" result="shape"/>
<feGaussianBlur stdDeviation="2" result="effect1_foregroundBlur_946_17622"/>
</filter>
<filter id="filter3_f_946_17622" x="290.371" y="19.0405" width="29.2567" height="29.1802" filterUnits="userSpaceOnUse" color-interpolation-filters="sRGB">
<feFlood flood-opacity="0" result="BackgroundImageFix"/>
<feBlend mode="normal" in="SourceGraphic" in2="BackgroundImageFix" result="shape"/>
<feGaussianBlur stdDeviation="1" result="effect1_foregroundBlur_946_17622"/>
</filter>
<filter id="filter4_d_946_17622" x="8.42365" y="11.8125" width="59.1982" height="26.9204" filterUnits="userSpaceOnUse" color-interpolation-filters="sRGB">
<feFlood flood-opacity="0" result="BackgroundImageFix"/>
<feColorMatrix in="SourceAlpha" type="matrix" values="0 0 0 0 0 0 0 0 0 0 0 0 0 0 0 0 0 0 127 0" result="hardAlpha"/>
<feOffset/>
<feGaussianBlur stdDeviation="2"/>
<feComposite in2="hardAlpha" operator="out"/>
<feColorMatrix type="matrix" values="0 0 0 0 0 0 0 0 0 0 0 0 0 0 0 0 0 0 0.25 0"/>
<feBlend mode="normal" in2="BackgroundImageFix" result="effect1_dropShadow_946_17622"/>
<feBlend mode="normal" in="SourceGraphic" in2="effect1_dropShadow_946_17622" result="shape"/>
</filter>
<radialGradient id="paint0_radial_946_17622" cx="0" cy="0" r="1" gradientUnits="userSpaceOnUse" gradientTransform="translate(-20.5 80.5001) rotate(-10.2133) scale(363.764 1840.22)">
<stop stop-color="#41EBC2"/>
<stop offset="0.541057" stop-color="#B2E2FD"/>
<stop offset="1" stop-color="#D7FFDB"/>
</radialGradient>
<radialGradient id="paint1_radial_946_17622" cx="0" cy="0" r="1" gradientUnits="userSpaceOnUse" gradientTransform="translate(17.5761 20.6667) rotate(25.4348) scale(45.0153 86.8586)">
<stop stop-color="white"/>
<stop offset="1" stop-color="#F3F3F3"/>
</radialGradient>
<clipPath id="clip0_946_17622">
<rect x="2" y="2" width="344" height="68" rx="8" fill="white"/>
</clipPath>
</defs>
</svg>
