<svg width="512" height="512" viewBox="0 0 512 512" fill="none" xmlns="http://www.w3.org/2000/svg">
<mask id="mask0_1086_3" style="mask-type:luminance" maskUnits="userSpaceOnUse" x="0" y="0" width="512" height="512">
<path d="M512 0H0V512H512V0Z" fill="white"/>
</mask>
<g mask="url(#mask0_1086_3)">
<path d="M256 512C397.385 512 512 397.385 512 256C512 114.615 397.385 0 256 0C114.615 0 0 114.615 0 256C0 397.385 114.615 512 256 512Z" fill="#34A853"/>
<path d="M335.442 295.998C332.46 304.418 320.627 311.398 311.187 313.439C304.73 314.814 296.295 315.911 267.902 304.139C231.583 289.088 208.195 252.188 206.371 249.788C204.626 247.398 191.695 230.251 191.695 212.515C191.695 194.779 200.702 186.146 204.332 182.438C207.314 179.394 212.242 178.004 216.968 178.004C218.498 178.004 219.874 178.082 221.11 178.143C224.74 178.298 226.563 178.514 228.956 184.243C231.939 191.43 239.199 209.163 240.064 210.988C240.944 212.811 241.826 215.288 240.59 217.677C239.575 219.772 238.223 221.687 236.59 223.347C234.768 225.447 233.037 227.053 231.214 229.309C229.546 231.272 227.661 233.372 229.762 237.003C231.862 240.556 239.124 252.403 249.814 261.92C258.262 269.648 268.094 275.711 278.792 279.788C281.774 281.024 285.327 280.731 287.506 278.414C290.271 275.432 293.684 270.489 297.16 265.623C299.632 262.131 302.752 261.699 306.028 262.935C309.365 264.094 327.023 272.822 330.652 274.63C334.281 276.438 336.678 277.318 337.558 278.847C338.423 280.38 338.423 287.563 335.442 295.998Z" fill="#34A853"/>
</g>
<mask id="mask1_1086_3" style="mask-type:luminance" maskUnits="userSpaceOnUse" x="56" y="56" width="400" height="400">
<path d="M456 56H56V456H456V56Z" fill="white"/>
</mask>
<g mask="url(#mask1_1086_3)">
<path d="M122.143 291.72L111.572 280.927C111.572 280.927 99.0352 265.517 111.572 251.589C124.121 237.658 125.806 236.966 125.806 236.966C125.806 236.966 141.516 225.211 155.75 238.646C169.959 252.084 210.218 292.977 210.218 292.977L356.25 146.675C356.25 146.675 372.169 131.959 387.879 146.675C403.589 161.391 402.097 160.878 402.097 160.878C402.097 160.878 414.158 175.795 395.884 194.069C377.598 212.343 224.79 365.016 224.79 365.016C224.79 365.016 211.094 380.426 195.64 365.016C180.186 349.606 122.143 291.72 122.143 291.72Z" fill="white"/>
</g>
</svg>
